<?xml version="1.0" encoding="UTF-8"?>
<svg version="1.1" xmlns="http://www.w3.org/2000/svg" width="2000" height="2000">
<path d="M0 0 C0.96679688 0.06832031 1.93359375 0.13664063 2.9296875 0.20703125 C32.20962965 3.34170741 60.06532847 19.84067288 80 41 C78.63886987 44.04581486 77.10669904 46.13839026 74.74365234 48.48339844 C74.08311859 49.14378113 73.42258484 49.80416382 72.74203491 50.48455811 C72.03052277 51.18574768 71.31901062 51.88693726 70.5859375 52.609375 C69.85629791 53.33618469 69.12665833 54.06299438 68.37490845 54.81182861 C66.0462612 57.12929198 63.71075174 59.4396995 61.375 61.75 C59.79381347 63.32115444 58.21307875 64.89276371 56.6328125 66.46484375 C52.7604331 70.31518653 48.88239829 74.15976117 45 78 C45.94101562 77.65066406 46.88203125 77.30132813 47.8515625 76.94140625 C49.10927474 76.48149655 50.36709293 76.02187653 51.625 75.5625 C52.85476563 75.11003906 54.08453125 74.65757812 55.3515625 74.19140625 C71.46985929 68.92793674 91.56964655 70.24603052 107 77 C107.9269165 77.4014624 107.9269165 77.4014624 108.87255859 77.81103516 C118.52829355 82.07113843 126.61326654 87.46553187 134 95 C132.68623083 97.90543872 131.27943508 99.96661059 129.01904297 102.20800781 C128.41857147 102.80832825 127.81809998 103.40864868 127.19943237 104.02716064 C126.23059616 104.980513 126.23059616 104.980513 125.2421875 105.953125 C124.57913605 106.61334656 123.91608459 107.27356812 123.23294067 107.95379639 C121.11828168 110.05727824 118.99676788 112.15369142 116.875 114.25 C115.43834443 115.67662261 114.00214102 117.10370072 112.56640625 118.53125 C109.04949196 122.02613661 105.52641453 125.51470062 102 129 C102.5408725 128.76812988 103.081745 128.53625977 103.63900757 128.29736328 C106.11978682 127.23628853 108.60282917 126.18061211 111.0859375 125.125 C111.93663818 124.76019531 112.78733887 124.39539063 113.66381836 124.01953125 C126.93647301 118.39064639 143.07567073 114.43300421 157.0625 120 C158.39005227 120.63616481 159.71031669 121.29019887 161 122 C161 125 161 125 159.59443665 126.77470684 C158.59890022 127.76609519 158.59890022 127.76609519 157.58325195 128.7775116 C156.82597809 129.53890945 156.06870422 130.30030731 155.28848267 131.08477783 C154.4469162 131.91555847 153.60534973 132.74633911 152.73828125 133.60229492 C151.8604599 134.48055435 150.98263855 135.35881378 150.07821655 136.26368713 C147.66628268 138.67388609 145.24787234 141.07722575 142.82638168 143.47780013 C140.29858914 145.98686975 137.77926022 148.50440781 135.2590332 151.02107239 C130.48386098 155.78691124 125.70109123 160.54504973 120.91556644 165.30049068 C115.46841872 170.71413457 110.02976245 176.13627477 104.59181404 181.55915678 C93.40398555 192.71560698 82.20550475 203.86130221 71 215 C68.15705508 213.57852754 67.67710811 211.50552037 66.67578125 208.609375 C62.20229409 191.33602575 67.5042043 174.90886491 74 159 C74.33 158.01 74.66 157.02 75 156 C64.77 166.23 54.54 176.46 44 187 C39.66017071 184.83008535 37.79944789 182.47702629 35.125 178.625 C34.68591309 177.99722656 34.24682617 177.36945313 33.79443359 176.72265625 C21.69381617 159.07313691 16.27264442 138.13475214 19.56640625 116.83984375 C20.84604337 110.14687263 22.58048123 104.45205006 25 98 C13.45 109.55 1.9 121.1 -10 133 C-27.95599155 124.02200423 -40.07943298 96.84038655 -46.8125 78.8125 C-47.56594903 76.54960747 -48.29634924 74.27886894 -49 72 C-49.3196875 70.99066406 -49.639375 69.98132813 -49.96875 68.94140625 C-54.11755002 53.86359137 -54.0100737 35.70409243 -46.375 21.8125 C-39.26847883 10.98765234 -30.45895064 4.4024574 -17.81640625 1.19140625 C-11.87838817 0.09457489 -6.02413138 -0.43582944 0 0 Z " fill="#FFFFFF" transform="translate(228,851)"/>
<path d="M0 0 C1.85893803 4.68775677 3.5050253 8.95125802 4 14 C4.07605469 14.68578125 4.15210938 15.3715625 4.23046875 16.078125 C4.61992683 22.77259359 3.32179135 28.95835247 1.8125 35.4375 C1.61640137 36.29480713 1.42030273 37.15211426 1.21826172 38.03540039 C-0.5421806 45.18998389 -3.08492357 51.00381658 -6 58 C4.23 47.77 14.46 37.54 25 27 C36.26596715 32.63298358 42.20142821 47.34626909 46.35546875 58.70703125 C52.50456985 78.13108707 51.10163103 97.06231725 44 116 C55.55 104.45 67.1 92.9 79 81 C96.61273876 89.80636938 110.20009506 118.12724293 116.36669922 136.07275391 C121.89697027 152.90234514 124.66390912 172.38292603 117 189 C111.70397417 199.17352075 103.93069789 207.08059493 93.1171875 211.0703125 C88.1173649 212.56148766 83.18754098 213.4754172 78 214 C77.2884375 214.0721875 76.576875 214.144375 75.84375 214.21875 C46.52442491 215.57194962 17.18188144 198.59224703 -4 180 C-6.39954496 177.7258668 -8.73308125 175.40618338 -11 173 C-9.65427113 170.00056095 -8.16462899 167.91923821 -5.83544922 165.60839844 C-4.87467972 164.64785553 -4.87467972 164.64785553 -3.89450073 163.66790771 C-3.20486237 162.98859192 -2.515224 162.30927612 -1.8046875 161.609375 C-1.09724396 160.90476135 -0.38980042 160.20014771 0.33908081 159.47418213 C2.59639862 157.2280461 4.86057633 154.98896991 7.125 152.75 C8.65800953 151.22702283 10.19056715 149.70359061 11.72265625 148.1796875 C15.47654573 144.44783185 19.23608914 140.72174649 23 137 C22.13117188 137.27714844 21.26234375 137.55429688 20.3671875 137.83984375 C19.21476562 138.20207031 18.06234375 138.56429688 16.875 138.9375 C15.73804688 139.29714844 14.60109375 139.65679688 13.4296875 140.02734375 C-6.40044889 145.65115236 -28.94751307 142.41250163 -47 133 C-53.6281033 129.03934805 -59.64410045 124.59175568 -65 119 C-63.68623083 116.09456128 -62.27943508 114.03338941 -60.01904297 111.79199219 C-59.41857147 111.19167175 -58.81809998 110.59135132 -58.19943237 109.97283936 C-57.55354156 109.33727112 -56.90765076 108.70170288 -56.2421875 108.046875 C-55.57913605 107.38665344 -54.91608459 106.72643188 -54.23294067 106.04620361 C-52.11828168 103.94272176 -49.99676788 101.84630858 -47.875 99.75 C-46.43834443 98.32337739 -45.00214102 96.89629928 -43.56640625 95.46875 C-40.04949196 91.97386339 -36.52641453 88.48529938 -33 85 C-34.5943689 85.71555054 -34.5943689 85.71555054 -36.22094727 86.44555664 C-37.64849503 87.07982673 -39.07615402 87.71384655 -40.50390625 88.34765625 C-41.5488324 88.81782166 -41.5488324 88.81782166 -42.61486816 89.29748535 C-55.68360508 95.07767012 -71.12491841 98.99290502 -85.29296875 95.09375 C-87.61808532 94.17550932 -89.81167733 93.20438397 -92 92 C-90.58725984 88.79794018 -88.89934535 86.64826465 -86.43212891 84.17816162 C-85.69182434 83.43221741 -84.95151978 82.68627319 -84.18878174 81.91772461 C-82.96998322 80.70499878 -82.96998322 80.70499878 -81.7265625 79.46777344 C-80.44347198 78.17942596 -80.44347198 78.17942596 -79.13446045 76.86505127 C-76.79115275 74.51445269 -74.44343599 72.16843962 -72.09331512 69.82466412 C-69.63554889 67.37196302 -67.18266785 64.91438425 -64.72900391 62.45758057 C-60.610037 58.3349769 -56.48687461 54.21660458 -52.36132812 50.10058594 C-47.58714907 45.33730531 -42.82023728 40.56684284 -38.05700874 35.79261374 C-33.96892574 31.69546683 -29.8769732 27.60221521 -25.78173637 23.51221871 C-23.33493383 21.06853896 -20.88951403 18.62351667 -18.4475708 16.17498016 C-15.72855713 13.4491381 -13.001451 10.73148498 -10.2734375 8.01464844 C-9.05463898 6.78977722 -9.05463898 6.78977722 -7.81121826 5.54016113 C-7.0709137 4.80549622 -6.33060913 4.0708313 -5.56787109 3.31390381 C-4.92337006 2.67015682 -4.27886902 2.02640984 -3.61483765 1.36315536 C-2 0 -2 0 0 0 Z " fill="#FFFFFF" transform="translate(150,924)"/>
<path d="M0 0 C4.72008917 4.30964663 6.55036281 8.72173252 7 15 C7.03353426 24.75846951 6.16055195 34.47679044 4 44 C4.99 44 5.98 44 7 44 C7.24878906 43.15566406 7.49757813 42.31132813 7.75390625 41.44140625 C13.46143426 25.67860947 26.69240594 8.61823454 41.484375 0.6640625 C49.72434617 -3.13278696 58.51101481 -4.73978609 67.375 -1.875 C71.26825301 -0.14377889 74.00085988 2.21936807 76 6 C80.74787349 18.46316791 76.77130045 33.89914439 75 46.625 C69.8521183 84.10888006 73.78273229 118.80847432 84.52856445 155.05249023 C85 157 85 157 85 160 C63.22 160 41.44 160 19 160 C12.83379965 143.55679906 11.42949412 127.53296905 18.6640625 111.125 C24.71729823 98.08606603 33.24770222 87.48651332 43 77 C43.91097519 76.00986742 44.82109791 75.01895002 45.73046875 74.02734375 C46.19654541 73.51913086 46.66262207 73.01091797 47.14282227 72.48730469 C48.08524925 71.45849531 49.02714861 70.42920234 49.96850586 69.39941406 C52.07743159 67.09281144 54.19321247 64.79483291 56.3359375 62.51953125 C61.30950415 57.14844905 65.61839433 52.12134127 66.3125 44.625 C66.15298218 42.02401016 66.15298218 42.02401016 65 40 C52.4266596 37.09479635 39.20624892 43.4727153 28.65283203 49.93554688 C24.47037273 52.6291248 20.68838155 55.67130105 17 59 C16.29359375 59.62519531 15.5871875 60.25039063 14.859375 60.89453125 C6.58258849 68.65006975 1.0557292 78.48184515 -3 89 C-3.32097656 89.83015625 -3.64195313 90.6603125 -3.97265625 91.515625 C-11.19288227 114.48601846 -3.62104117 138.40705003 4 160 C-14.48 160 -32.96 160 -52 160 C-57.80236911 139.6917081 -58.58137239 124.11067211 -49 105 C-41.60627388 91.72826161 -31.15327383 80.00892195 -20.375 69.375 C-8.89243038 58.43555129 -8.89243038 58.43555129 -4 44 C-4.39260542 41.63045713 -4.39260542 41.63045713 -6 40 C-15.36890888 36.72088189 -26.63004606 42.235766 -35.16015625 46.09960938 C-53.47401516 55.06212419 -67.20383085 70.89214111 -74 90 C-81.09805013 114.32534616 -74.71464252 136.85607243 -67 160 C-82.51 160 -98.02 160 -114 160 C-110 144 -110 144 -108.40234375 137.70703125 C-97.41006683 93.92392429 -99.46777187 53.42952906 -111.30737305 9.93652344 C-112.07869191 6.66637072 -112.52484042 3.32611709 -113 0 C-97.49 0 -81.98 0 -66 0 C-67.12530205 13.50362456 -67.12530205 13.50362456 -67.83203125 18.56298828 C-67.98889404 19.69680939 -68.14575684 20.83063049 -68.30737305 21.99880981 C-68.47406494 23.1774057 -68.64075684 24.35600159 -68.8125 25.5703125 C-68.98628174 26.81376434 -69.16006348 28.05721619 -69.33911133 29.33834839 C-69.79650046 32.60273994 -70.25714071 35.86665274 -70.71887207 39.13043213 C-71.09613993 41.80710089 -71.4682718 44.48447415 -71.84046936 47.16185188 C-72.28608698 50.3609828 -72.73702656 53.55936229 -73.1875 56.7578125 C-73.35419189 57.9566507 -73.52088379 59.15548889 -73.69262695 60.39065552 C-73.84948975 61.49295502 -74.00635254 62.59525452 -74.16796875 63.73095703 C-74.30485107 64.70292023 -74.4417334 65.67488342 -74.58276367 66.67630005 C-75 69 -75 69 -76 71 C-75.01 70.67 -74.02 70.34 -73 70 C-72.11211527 67.46709595 -71.40338697 65.03156484 -70.75 62.4375 C-66.06811237 45.3267034 -58.34430883 29.70881348 -47 16 C-46.54238281 15.39671875 -46.08476563 14.7934375 -45.61328125 14.171875 C-35.50426296 1.31111821 -15.76107692 -9.45664615 0 0 Z " fill="#FFFFFF" transform="translate(1417,931)"/>
<path d="M0 0 C0.82197372 -0.0033284 1.64394745 -0.0066568 2.49082947 -0.01008606 C4.22963915 -0.01512496 5.96845841 -0.01749533 7.70727539 -0.01733398 C10.28094014 -0.01948209 12.85414746 -0.03756234 15.42773438 -0.05664062 C28.59524365 -0.07166631 41.03274106 1.01626417 54.27734375 2.16796875 C54.27734375 25.59796875 54.27734375 49.02796875 54.27734375 73.16796875 C51.96734375 71.18796875 49.65734375 69.20796875 47.27734375 67.16796875 C30.25297274 54.85461727 11.29204656 48.22844143 -9.91015625 50.85546875 C-22.46192796 52.97314197 -37.37652826 58.40755294 -45.16015625 69.15234375 C-48.6687008 74.6145097 -50.06569344 78.53591634 -49.72265625 85.16796875 C-48.86247294 88.60870197 -48.21911256 89.80215884 -45.34765625 91.91796875 C-40.73751994 94.11327176 -36.8947609 94.30369195 -31.78515625 94.29296875 C-30.57988281 94.29554688 -29.37460937 94.298125 -28.1328125 94.30078125 C-24.66255721 94.24119018 -21.23124061 93.9746494 -17.7734375 93.6796875 C-10.52855618 93.09880149 -3.30352281 92.91253645 3.96044922 92.87280273 C5.41823018 92.86127428 6.87596864 92.84080834 8.33349609 92.8112793 C22.08397021 92.53491113 36.48728102 93.62616818 47.27734375 103.16796875 C59.42037967 114.89753212 63.26526592 128.90291283 63.57006836 145.50439453 C63.69902275 165.72635323 60.06833499 184.06918975 45.4375 199.06640625 C44.72464844 199.75992187 44.01179688 200.4534375 43.27734375 201.16796875 C42.76042969 201.71710938 42.24351562 202.26625 41.7109375 202.83203125 C37.93737376 206.51692117 33.41928699 208.87993702 28.77734375 211.29296875 C28.16753662 211.61797363 27.55772949 211.94297852 26.92944336 212.27783203 C12.14776222 219.62107406 -2.33234417 219.74554164 -18.52880859 219.57958984 C-22.21480073 219.54304663 -25.89978271 219.53857199 -29.5859375 219.5390625 C-31.97526892 219.52922879 -34.36459367 219.51757069 -36.75390625 219.50390625 C-38.3717804 219.50056778 -38.3717804 219.50056778 -40.02233887 219.49716187 C-48.52082577 219.39404385 -56.13080353 218.31354911 -64.72265625 217.16796875 C-64.72265625 194.39796875 -64.72265625 171.62796875 -64.72265625 148.16796875 C-57.79265625 150.80796875 -50.86265625 153.44796875 -43.72265625 156.16796875 C-37.06998336 158.29029385 -30.45757568 160.35107434 -23.72265625 162.16796875 C-22.64032715 162.4616333 -22.64032715 162.4616333 -21.53613281 162.76123047 C-1.23890041 168.11861431 27.87567 174.42958144 48.27734375 167.16796875 C51.44718636 165.1661688 51.44718636 165.1661688 53.27734375 162.16796875 C54.02745742 158.62525233 54.02745742 158.62525233 53.27734375 155.16796875 C46.41906874 146.75747445 31.58244442 145.09599092 21.58984375 142.29296875 C-6.3558261 134.42281903 -37.87453285 123.96957101 -53.16015625 97.10546875 C-54.39902761 94.81364878 -55.56457449 92.50334215 -56.72265625 90.16796875 C-57.35300781 88.94013672 -57.35300781 88.94013672 -57.99609375 87.6875 C-65.80732004 70.62613732 -66.13696123 48.61286526 -59.72265625 31.16796875 C-53.94686656 18.16496036 -44.839525 10.36842142 -31.72265625 5.16796875 C-21.30369204 1.68682813 -10.95745287 0.01601257 0 0 Z " fill="#FFFFFF" transform="translate(467.72265625,873.83203125)"/>
<path d="M0 0 C14.11329476 7.82754163 20.50293211 21.43543191 25.5625 36.25 C32.85083542 62.0793728 34.12352638 94.39419135 26.375 120.25 C26.18776367 120.90532715 26.00052734 121.5606543 25.80761719 122.23583984 C23.30226971 130.7968588 19.57338389 138.0280028 14.375 145.25 C13.611875 146.3225 12.84875 147.395 12.0625 148.5 C2.94113291 157.83349191 -7.68280075 162.56498583 -20.75 162.75 C-27.37962565 162.66340451 -32.85303767 161.56314805 -38.625 158.25 C-39.31851562 157.86070312 -40.01203125 157.47140625 -40.7265625 157.0703125 C-49.20239563 151.53974957 -54.84097621 141.82008178 -57.625 132.25 C-57.625 131.26 -57.625 130.27 -57.625 129.25 C-58.615 129.25 -59.605 129.25 -60.625 129.25 C-60.56680084 130.00214783 -60.50860168 130.75429565 -60.44863892 131.52923584 C-59.88922978 138.76079488 -59.33063561 145.99241626 -58.7728672 153.22410202 C-58.48636793 156.9383337 -58.19959692 160.65254389 -57.91210938 164.36669922 C-57.19458054 173.63886354 -56.48323124 182.91147484 -55.78144836 192.18484497 C-55.6264196 194.23126092 -55.47063397 196.27761836 -55.31481934 198.32397461 C-55.02597562 202.13755744 -54.74253532 205.95150106 -54.4609375 209.765625 C-54.37566803 210.88507507 -54.29039856 212.00452515 -54.20254517 213.15789795 C-54.12587616 214.21212952 -54.04920715 215.26636108 -53.97021484 216.35253906 C-53.90313324 217.25522522 -53.83605164 218.15791138 -53.76693726 219.08795166 C-53.57018565 223.47114256 -53.625 227.86239546 -53.625 232.25 C-69.465 232.25 -85.305 232.25 -101.625 232.25 C-99.42590498 221.25452489 -99.42590498 221.25452489 -98.2578125 216.08984375 C-95.31354993 202.73228143 -92.92591568 189.45741354 -91.3125 175.875 C-91.2315509 175.20024628 -91.15060181 174.52549255 -91.06719971 173.83029175 C-88.84235441 155.04019061 -88.38525928 136.4649201 -88.375 117.5625 C-88.37399292 116.27609619 -88.37298584 114.98969238 -88.37194824 113.66430664 C-88.39137617 76.89067479 -91.33570709 40.98681749 -100.22949219 5.19750977 C-100.625 3.25 -100.625 3.25 -100.625 0.25 C-83.465 0.25 -66.305 0.25 -48.625 0.25 C-49.22449371 5.04594971 -49.81518829 9.56244941 -50.78125 14.25390625 C-50.99910156 15.32447266 -51.21695312 16.39503906 -51.44140625 17.49804688 C-51.66699219 18.59181641 -51.89257812 19.68558594 -52.125 20.8125 C-54.12572848 30.48836906 -54.12572848 30.48836906 -55.625 40.25 C-54.635 40.745 -54.635 40.745 -53.625 41.25 C-53.439375 40.33734375 -53.439375 40.33734375 -53.25 39.40625 C-49.72632693 24.43063944 -42.09205133 8.84013541 -28.8359375 0.44140625 C-19.69083454 -4.48660859 -9.35352515 -4.5898339 0 0 Z M-44.625 63.25 C-45.18558105 63.72695313 -45.74616211 64.20390625 -46.32373047 64.6953125 C-58.08070418 74.77753243 -73.30670482 89.48354045 -74.86328125 105.73828125 C-75.02130995 111.75168903 -74.90656468 115.61163826 -70.625 120.25 C-66.04640766 123.00864978 -61.82833743 122.89697582 -56.625 122.25 C-36.03042178 117.07624011 -18.78135432 103.54239275 -3.625 89.25 C-2.79226563 88.49332031 -1.95953125 87.73664063 -1.1015625 86.95703125 C9.12910698 77.30872296 18.17163491 64.73646718 19.8125 50.4375 C19.1402208 45.53946586 17.31162425 41.3664942 13.375 38.25 C-6.05687075 31.77270975 -30.75544509 51.27416491 -44.625 63.25 Z " fill="#FFFFFF" transform="translate(1611.625,931.75)"/>
<path d="M0 0 C14.11329476 7.82754163 20.50293211 21.43543191 25.5625 36.25 C32.85083542 62.0793728 34.12352638 94.39419135 26.375 120.25 C26.18776367 120.90532715 26.00052734 121.5606543 25.80761719 122.23583984 C23.30226971 130.7968588 19.57338389 138.0280028 14.375 145.25 C13.611875 146.3225 12.84875 147.395 12.0625 148.5 C2.94113291 157.83349191 -7.68280075 162.56498583 -20.75 162.75 C-27.37962565 162.66340451 -32.85303767 161.56314805 -38.625 158.25 C-39.31851563 157.86070312 -40.01203125 157.47140625 -40.7265625 157.0703125 C-49.20239563 151.53974957 -54.84097621 141.82008178 -57.625 132.25 C-57.625 131.26 -57.625 130.27 -57.625 129.25 C-58.615 129.25 -59.605 129.25 -60.625 129.25 C-60.56680084 130.00214783 -60.50860168 130.75429565 -60.44863892 131.52923584 C-59.88922978 138.76079488 -59.33063561 145.99241626 -58.7728672 153.22410202 C-58.48636793 156.9383337 -58.19959692 160.65254389 -57.91210938 164.36669922 C-57.19458054 173.63886354 -56.48323124 182.91147484 -55.78144836 192.18484497 C-55.6264196 194.23126092 -55.47063397 196.27761836 -55.31481934 198.32397461 C-55.02597562 202.13755744 -54.74253532 205.95150106 -54.4609375 209.765625 C-54.37566803 210.88507507 -54.29039856 212.00452515 -54.20254517 213.15789795 C-54.12587616 214.21212952 -54.04920715 215.26636108 -53.97021484 216.35253906 C-53.90313324 217.25522522 -53.83605164 218.15791138 -53.76693726 219.08795166 C-53.57018565 223.47114256 -53.625 227.86239546 -53.625 232.25 C-69.465 232.25 -85.305 232.25 -101.625 232.25 C-99.42590498 221.25452489 -99.42590498 221.25452489 -98.2578125 216.08984375 C-95.31354993 202.73228143 -92.92591568 189.45741354 -91.3125 175.875 C-91.2315509 175.20024628 -91.15060181 174.52549255 -91.06719971 173.83029175 C-88.84235441 155.04019061 -88.38525928 136.4649201 -88.375 117.5625 C-88.37399292 116.27609619 -88.37298584 114.98969238 -88.37194824 113.66430664 C-88.39137617 76.89067479 -91.33570709 40.98681749 -100.22949219 5.19750977 C-100.625 3.25 -100.625 3.25 -100.625 0.25 C-83.465 0.25 -66.305 0.25 -48.625 0.25 C-49.22449371 5.04594971 -49.81518829 9.56244941 -50.78125 14.25390625 C-50.99910156 15.32447266 -51.21695313 16.39503906 -51.44140625 17.49804688 C-51.66699219 18.59181641 -51.89257812 19.68558594 -52.125 20.8125 C-54.12572848 30.48836906 -54.12572848 30.48836906 -55.625 40.25 C-54.635 40.745 -54.635 40.745 -53.625 41.25 C-53.439375 40.33734375 -53.439375 40.33734375 -53.25 39.40625 C-49.72632693 24.43063944 -42.09205133 8.84013541 -28.8359375 0.44140625 C-19.69083454 -4.48660859 -9.35352515 -4.5898339 0 0 Z M-44.625 63.25 C-45.18558105 63.72695313 -45.74616211 64.20390625 -46.32373047 64.6953125 C-58.08070418 74.77753243 -73.30670482 89.48354045 -74.86328125 105.73828125 C-75.02130995 111.75168903 -74.90656468 115.61163826 -70.625 120.25 C-66.04640766 123.00864978 -61.82833743 122.89697582 -56.625 122.25 C-36.03042178 117.07624011 -18.78135432 103.54239275 -3.625 89.25 C-2.79226563 88.49332031 -1.95953125 87.73664063 -1.1015625 86.95703125 C9.12910698 77.30872296 18.17163491 64.73646718 19.8125 50.4375 C19.1402208 45.53946586 17.31162425 41.3664942 13.375 38.25 C-6.05687075 31.77270975 -30.75544509 51.27416491 -44.625 63.25 Z " fill="#FFFFFF" transform="translate(771.625,931.75)"/>
<path d="M0 0 C15.84 0 31.68 0 48 0 C46.948125 4.145625 45.89625 8.29125 44.8125 12.5625 C36.60385222 45.94676027 32.76523973 80.01328526 32.8125 114.375 C32.81310425 115.19738159 32.8137085 116.01976318 32.81433105 116.86706543 C32.88553843 152.8684705 37.64533877 187.48446258 48 222 C30.51 222 13.02 222 -5 222 C-3 212 -3 212 -2 207.03515625 C-0.25605571 198.37025426 1.48207767 189.70808076 3 181 C2.01 181 1.02 181 0 181 C-0.309375 182.794375 -0.309375 182.794375 -0.625 184.625 C-3.96192467 199.44281236 -11.64811277 212.99521508 -24 222 C-31.19097792 226.48680765 -40.73679621 226.11194446 -48.7734375 224.4140625 C-59.99815422 220.55445959 -67.66817933 211.23133155 -73 201 C-88.27098261 169.61169117 -88.58968942 126.99918802 -77.47412109 94.27856445 C-75.15596039 87.92020097 -72.0869387 82.40863218 -68 77 C-67.54109375 76.34902344 -67.0821875 75.69804688 -66.609375 75.02734375 C-60.91845135 67.58662461 -51.29882599 61.46479397 -42 60 C-32.62157745 59.17552329 -23.11293981 58.59137346 -15 64 C-14.319375 64.4125 -13.63875 64.825 -12.9375 65.25 C-3.37478515 71.62514323 1.09988284 81.53977793 5 92 C5.66 92 6.32 92 7 92 C6.91230347 90.89166306 6.82460693 89.78332611 6.73425293 88.6414032 C5.90892388 78.20868513 5.08482567 67.77587048 4.26194 57.3429594 C3.83882271 51.97899714 3.41526815 46.61507014 2.99072266 41.2512207 C2.58121575 36.07717104 2.1728465 30.90303273 1.76527405 25.72883034 C1.60938742 23.75239661 1.45308724 21.77599546 1.29637146 19.7996273 C1.07735341 17.03666868 0.85979106 14.27359908 0.64257812 11.51049805 C0.54439537 10.2783532 0.54439537 10.2783532 0.44422913 9.02131653 C0.20832353 6.00542775 0 3.02645238 0 0 Z M-49 133 C-49.85722656 133.804375 -50.71445313 134.60875 -51.59765625 135.4375 C-61.24917201 144.75419696 -71.95260065 157.24853103 -72.25 171.375 C-72.18733772 175.60818542 -71.45217047 178.44858069 -69 182 C-65.23181229 185.53267598 -61.09092707 185.56525771 -56.1484375 185.40625 C-40.52563965 183.39040512 -26.14075908 173.43684371 -14 164 C-13.08476563 163.28972656 -12.16953125 162.57945312 -11.2265625 161.84765625 C1.94787689 151.34869825 18.42286818 136.3978684 22 119 C22.69758711 112.17279505 22.24271774 107.50406626 18 102 C-1.34466755 89.28778989 -36.71785857 121.36635564 -49 133 Z " fill="#FFFFFF" transform="translate(1852,869)"/>
<path d="M0 0 C2.79919765 -0.00438708 5.59682891 -0.04093876 8.39575195 -0.07861328 C35.24794238 -0.24453356 61.8845056 6.39384552 81.86645508 25.37060547 C93.74071704 37.68254055 100.61317051 52.70587093 101.24145508 69.87060547 C100.58913255 89.18502469 92.42440593 105.73497149 78.65551758 118.98388672 C60.31411694 134.67939903 39.67653464 136.7051236 16.67895508 136.49560547 C14.75382952 136.48555598 12.82869889 136.47643361 10.90356445 136.46826172 C6.22440098 136.44640332 1.545485 136.41198183 -3.13354492 136.37060547 C-1.72087053 163.05349807 1.08042837 187.02097384 14.86645508 210.37060547 C16.84645508 213.83560547 16.84645508 213.83560547 18.86645508 217.37060547 C-0.27354492 217.37060547 -19.41354492 217.37060547 -39.13354492 217.37060547 C-35.13354492 200.37060547 -35.13354492 200.37060547 -33.78979492 194.77685547 C-31.50665808 185.17275953 -29.535676 175.55217992 -27.94604492 165.80810547 C-27.79135742 164.87740234 -27.63666992 163.94669922 -27.47729492 162.98779297 C-24.55251023 144.29460383 -23.75828414 125.70546151 -23.82104492 106.80810547 C-23.82286774 105.6658551 -23.82469055 104.52360474 -23.8265686 103.34674072 C-23.87266596 86.16879474 -24.32222462 69.35000131 -27.13354492 52.37060547 C-27.31046875 51.27796387 -27.48739258 50.18532227 -27.66967773 49.05957031 C-30.04021806 34.82199869 -33.3352968 20.99431536 -37.66210938 7.22631836 C-38.13354492 5.37060547 -38.13354492 5.37060547 -38.13354492 2.37060547 C-25.39999201 0.77443418 -12.83344127 -0.00223833 0 0 Z M18.65356445 83.92041016 C12.3853058 92.31592824 7.10325886 100.02295345 7.46020508 110.83544922 C7.73825638 113.62739845 7.73825638 113.62739845 9.86645508 116.55810547 C13.75254681 118.90595255 16.518013 119.25613258 20.86645508 118.37060547 C43.57163443 111.1721757 64.68739175 92.27059342 75.86645508 71.37060547 C77.81340058 66.32851582 78.29096144 62.71938564 77.86645508 57.37060547 C76.13677795 53.62512942 76.13677795 53.62512942 72.86645508 51.37060547 C52.93115447 49.11377898 30.15847239 69.21969446 18.65356445 83.92041016 Z " fill="#FFFFFF" transform="translate(1063.133544921875,873.62939453125)"/>
<path d="M0 0 C21.78 0 43.56 0 66 0 C72.4179081 19.25372429 72.71371874 34.33223379 64.55859375 52.94140625 C59.16034473 63.53496259 51.31008324 72.48109547 43.46728516 81.31933594 C42.41815753 82.5210322 41.38863019 83.73995374 40.37255859 84.96972656 C39.84098145 85.61135742 39.3094043 86.25298828 38.76171875 86.9140625 C38.28049561 87.50396973 37.79927246 88.09387695 37.3034668 88.70166016 C36 90 36 90 34 90 C33.60748047 90.88945313 33.60748047 90.88945313 33.20703125 91.796875 C31.9356592 94.11743758 30.63206431 95.47359092 28.6875 97.25 C22.96960161 102.86046397 19.66107156 107.97647762 18.75 116.01953125 C18.87112138 118.05529182 18.87112138 118.05529182 20.0625 119.76171875 C23.83138866 122.17046412 28.00858484 121.18288241 32.21875 120.40625 C45.79239529 116.65733844 57.48538894 110.43421066 68 101 C68.60972656 100.48308594 69.21945312 99.96617188 69.84765625 99.43359375 C82.19172617 88.21426824 89.80726072 70.86049836 91.22143555 54.42675781 C92.11115299 34.35594631 87.81533493 19.31011565 81 0 C96.51 0 112.02 0 128 0 C127.35102568 4.54282022 126.71343186 8.44195576 125.51171875 12.78125 C125.2192627 13.85955078 124.92680664 14.93785156 124.62548828 16.04882812 C124.31595215 17.18771484 124.00641602 18.32660156 123.6875 19.5 C121.31152168 28.44915335 119.19365114 37.37274894 117.625 46.5 C117.46990967 47.39912109 117.31481934 48.29824219 117.1550293 49.22460938 C111.01755834 86.74186771 118.33247885 122.7467957 128 159 C112.49 159 96.98 159 81 159 C81 153.95019398 81.04001734 149.7112599 81.71850586 144.83105469 C81.87544418 143.68336609 82.03238251 142.53567749 82.19407654 141.35321045 C82.36592972 140.13836975 82.5377829 138.92352905 82.71484375 137.671875 C82.89004044 136.40531067 83.06523712 135.13874634 83.2457428 133.83380127 C83.61562805 131.16745385 83.98750571 128.50148539 84.36303711 125.8359375 C84.84350866 122.42494688 85.317262 119.01306656 85.78865719 115.600811 C86.24061193 112.33246854 86.69648174 109.06467444 87.15234375 105.796875 C87.40708717 103.96246857 87.40708717 103.96246857 87.66697693 102.09100342 C87.82706741 100.95592346 87.9871579 99.82084351 88.15209961 98.65136719 C88.29199814 97.6540155 88.43189667 96.65666382 88.57603455 95.62908936 C88.94006363 93.37167667 89.40148534 91.20495294 90 89 C89.01 89 88.02 89 87 89 C86.88527344 90.15886719 86.77054688 91.31773437 86.65234375 92.51171875 C86.11094248 96.78569239 85.00961429 100.76116488 83.5625 104.8125 C83.305896 105.53244141 83.04929199 106.25238281 82.78491211 106.99414062 C78.13722512 119.47366894 71.90792267 132.02312661 63 142 C62.33742188 142.8146875 61.67484375 143.629375 60.9921875 144.46875 C53.60543262 153.25872355 44.22513279 161.22945379 32.4140625 162.3359375 C18.31722054 162.48126577 18.31722054 162.48126577 13 158 C5.94180168 149.13200724 7.08183695 137.65939092 8.2244873 126.8828125 C8.91016739 121.16231683 9.71065697 115.4569162 10.5 109.75 C15.42684735 73.74052969 11.74036923 39.8182529 0.91796875 5.10546875 C0 2 0 2 0 0 Z " fill="#FFFFFF" transform="translate(534,932)"/>
<path d="M0 0 C21.78 0 43.56 0 66 0 C72.08756648 19.78459107 73.0154542 35.45269616 63.38110352 54.0378418 C55.89574889 67.81720825 45.83875183 78.78114627 35 90 C23.52654345 100.99061167 23.52654345 100.99061167 18.5 115.4375 C18.665 116.613125 18.83 117.78875 19 119 C23.83580475 122.22386983 28.45243065 121.05170106 34 120 C55.33731896 113.21888518 73.43672283 99.80344344 84.11132812 79.85791016 C94.19154611 58.78360826 92.74545104 34.45828923 85.4375 12.8125 C84.6328337 10.53887901 83.82095621 8.26778993 83 6 C82.01 3.03 82.01 3.03 81 0 C96.51 0 112.02 0 128 0 C125.76681519 11.16592404 125.76681519 11.16592404 124.4140625 15.93359375 C111.74285623 61.76306381 111.66516661 107.42509201 126.44921875 152.84814453 C127 155 127 155 127 159 C111.49 159 95.98 159 80 159 C80.96019752 151.72663212 81.9204551 144.45327222 82.88085938 137.17993164 C83.20673994 134.7118372 83.53258704 132.24373834 83.85839844 129.77563477 C84.01598633 128.58188232 84.17357422 127.38812988 84.3359375 126.15820312 C84.4916925 124.97811676 84.64744751 123.7980304 84.80792236 122.58218384 C85.1166295 120.24550924 85.42582832 117.90889955 85.73553467 115.57235718 C86.37874239 110.71879515 87.02013042 105.86519919 87.63769531 101.00830078 C87.72886627 100.29924088 87.82003723 99.59018097 87.91397095 98.8596344 C88.14260738 97.07740018 88.36763342 95.29470376 88.59228516 93.51196289 C89 91 89 91 90 89 C89.01 89 88.02 89 87 89 C86.79375 90.299375 86.5875 91.59875 86.375 92.9375 C82.56278722 111.68087948 73.92628585 128.20423184 62 143 C61.49984375 143.66515625 60.9996875 144.3303125 60.484375 145.015625 C54.31326337 152.88911225 44.84924022 159.82495945 35 162 C27.43895748 162.68521948 20.70971011 163.09128665 14 159 C10.67995917 155.97174423 8.26615079 152.65611749 7.80712891 148.07519531 C7.23725395 132.18086461 8.89697628 116.92528519 11.22119141 101.23535156 C13.21036955 87.51469658 13.92400024 73.82184437 12.3125 60 C12.22709961 59.23985596 12.14169922 58.47971191 12.05371094 57.6965332 C9.8228101 39.40423634 5.66988244 21.49153464 0.47143555 3.83398438 C0 2 0 2 0 0 Z " fill="#FFFFFF" transform="translate(1169,932)"/>
<path d="M0 0 C2.20503974 0.02375751 4.40887671 0.02051749 6.61401367 0.01391602 C20.50346042 0.03848975 20.50346042 0.03848975 26.51049805 2.33618164 C28.0612793 3.89477539 28.0612793 3.89477539 28.82299805 5.77368164 C29.11561523 6.49297852 29.40823242 7.21227539 29.7097168 7.95336914 C29.97397461 8.73969727 30.23823242 9.52602539 30.51049805 10.33618164 C30.78506836 11.14313477 31.05963867 11.95008789 31.3425293 12.78149414 C35.26991705 25.7438084 39.56436094 45.44423523 33.07299805 58.21118164 C24.12691921 72.1645505 11.6024492 82.28562992 -4.70825195 86.08618164 C-9.69552312 86.97500224 -14.41901428 87.41844619 -19.48950195 87.33618164 C-19.53204552 85.33663418 -19.53030978 83.33576528 -19.48950195 81.33618164 C-17.66470767 79.51138736 -14.64230522 79.85561369 -12.17700195 79.58618164 C1.10149182 77.72773119 13.72987698 71.93425916 22.07299805 61.08618164 C25.32438115 56.41653944 26.88904853 53.14062239 26.51049805 47.33618164 C26.18049805 46.67618164 25.85049805 46.01618164 25.51049805 45.33618164 C11.95368176 42.01092482 -1.89109207 49.98360232 -13.48950195 56.33618164 C-17.37891155 58.76996 -20.94289 61.43085958 -24.48950195 64.33618164 C-25.4330957 65.0799707 -26.37668945 65.82375977 -27.34887695 66.59008789 C-40.11776798 76.78794546 -51.20845532 88.49304175 -56.48950195 104.33618164 C-56.66093282 106.62380011 -56.75593659 108.91761133 -56.80200195 111.21118164 C-56.83938477 112.42547852 -56.87676758 113.63977539 -56.9152832 114.89086914 C-56.41322231 118.95341689 -55.37557792 120.49118861 -52.48950195 123.33618164 C-34.10817238 132.69394942 -9.09598159 125.15897754 9.51049805 119.33618164 C18.63465193 116.34465578 27.83370367 113.30294835 36.0144043 108.18383789 C37.51049805 107.33618164 37.51049805 107.33618164 39.51049805 107.33618164 C39.51049805 125.15618164 39.51049805 142.97618164 39.51049805 161.33618164 C12.80651842 168.01217655 -13.45728953 168.28751727 -37.73413086 154.40063477 C-54.48103512 144.24534929 -64.30786613 127.86612376 -69.03295898 109.25170898 C-75.16150315 83.53804188 -72.18621084 54.35357244 -58.67700195 31.39868164 C-48.4878148 15.88244798 -35.79321322 5.72379882 -17.78540039 0.94702148 C-11.88808287 -0.14594803 -5.97556144 -0.06883825 0 0 Z " fill="#FFFFFF" transform="translate(1722.489501953125,928.663818359375)"/>
<path d="M0 0 C2.20503974 0.02375751 4.40887671 0.02051749 6.61401367 0.01391602 C20.50346042 0.03848975 20.50346042 0.03848975 26.51049805 2.33618164 C28.0612793 3.89477539 28.0612793 3.89477539 28.82299805 5.77368164 C29.11561523 6.49297852 29.40823242 7.21227539 29.7097168 7.95336914 C29.97397461 8.73969727 30.23823242 9.52602539 30.51049805 10.33618164 C30.78506836 11.14313477 31.05963867 11.95008789 31.3425293 12.78149414 C35.26991705 25.7438084 39.56436094 45.44423523 33.07299805 58.21118164 C24.12691921 72.1645505 11.6024492 82.28562992 -4.70825195 86.08618164 C-9.69552312 86.97500224 -14.41901428 87.41844619 -19.48950195 87.33618164 C-19.53204552 85.33663418 -19.53030978 83.33576528 -19.48950195 81.33618164 C-17.66470767 79.51138736 -14.64230522 79.85561369 -12.17700195 79.58618164 C1.10149182 77.72773119 13.72987698 71.93425916 22.07299805 61.08618164 C25.32438115 56.41653944 26.88904853 53.14062239 26.51049805 47.33618164 C26.18049805 46.67618164 25.85049805 46.01618164 25.51049805 45.33618164 C11.95368176 42.01092482 -1.89109207 49.98360232 -13.48950195 56.33618164 C-17.37891155 58.76996 -20.94289 61.43085958 -24.48950195 64.33618164 C-25.4330957 65.0799707 -26.37668945 65.82375977 -27.34887695 66.59008789 C-40.11776798 76.78794546 -51.20845532 88.49304175 -56.48950195 104.33618164 C-56.66093282 106.62380011 -56.75593659 108.91761133 -56.80200195 111.21118164 C-56.83938477 112.42547852 -56.87676758 113.63977539 -56.9152832 114.89086914 C-56.41322231 118.95341689 -55.37557792 120.49118861 -52.48950195 123.33618164 C-34.10817238 132.69394942 -9.09598159 125.15897754 9.51049805 119.33618164 C18.63465193 116.34465578 27.83370367 113.30294835 36.0144043 108.18383789 C37.51049805 107.33618164 37.51049805 107.33618164 39.51049805 107.33618164 C39.51049805 125.15618164 39.51049805 142.97618164 39.51049805 161.33618164 C12.80651842 168.01217655 -13.45728953 168.28751727 -37.73413086 154.40063477 C-54.48103512 144.24534929 -64.30786613 127.86612376 -69.03295898 109.25170898 C-75.16150315 83.53804188 -72.18621084 54.35357244 -58.67700195 31.39868164 C-48.4878148 15.88244798 -35.79321322 5.72379882 -17.78540039 0.94702148 C-11.88808287 -0.14594803 -5.97556144 -0.06883825 0 0 Z " fill="#FFFFFF" transform="translate(882.489501953125,928.663818359375)"/>
<path d="M0 0 C0 15.51 0 31.02 0 47 C-4.95 47 -9.9 47 -15 47 C-28.84183771 50.68133982 -38.04047254 59.44180546 -45.5625 71.375 C-57.09003829 91.93763588 -60.34223347 117.3053286 -54.44677734 140.14306641 C-52.62208756 146.55881881 -50.47817517 152.80456207 -48 159 C-63.84 159 -79.68 159 -96 159 C-94.5975 153.885 -93.195 148.77 -91.75 143.5 C-78.80592668 95.29281059 -80.56090076 51.69871244 -94.52856445 3.84985352 C-95 2 -95 2 -95 0 C-79.49 0 -63.98 0 -48 0 C-48.67113032 9.39582441 -49.50408089 18.54368794 -50.84765625 27.8359375 C-51.02380966 29.0813028 -51.19996307 30.32666809 -51.38145447 31.60977173 C-51.84325139 34.8684645 -52.30914265 38.12653448 -52.77716064 41.38433838 C-53.25667848 44.72968044 -53.73061906 48.07581242 -54.20507812 51.421875 C-55.13167353 57.94864304 -56.06368616 64.47461944 -57 71 C-56.01 71 -55.02 71 -54 71 C-54.05414062 69.42412109 -54.05414062 69.42412109 -54.109375 67.81640625 C-54.09097393 46.8805925 -49.93584104 18.29436811 -34.88671875 2.625 C-24.70409758 -6.14512506 -11.85693275 -3.95231092 0 0 Z " fill="#FFFFFF" transform="translate(1024,932)"/>
</svg>
