<?xml version="1.0" encoding="UTF-8"?>
<svg version="1.1" xmlns="http://www.w3.org/2000/svg" width="1280" height="240">
<path d="M0 0 C6.875 0.875 6.875 0.875 8 2 C10.3756852 2.0883967 12.72208674 2.11530305 15.09765625 2.09765625 C15.80651474 2.0962413 16.51537323 2.09482635 17.24571228 2.09336853 C19.51801712 2.08775443 21.79022475 2.07519963 24.0625 2.0625 C25.59960796 2.05748681 27.13671745 2.05292359 28.67382812 2.04882812 C32.44925642 2.03778042 36.22461171 2.02050641 40 2 C40 1.34 40 0.68 40 0 C41.32 0.66 42.64 1.32 44 2 C43.9278125 2.69867188 43.855625 3.39734375 43.78125 4.1171875 C43.6884375 5.02726562 43.595625 5.93734375 43.5 6.875 C43.4071875 7.77992187 43.314375 8.68484375 43.21875 9.6171875 C42.96952705 11.93313211 42.96952705 11.93313211 43 14 C44.25664978 11.09399739 45 9.20395416 45 6 C46.32 6 47.64 6 49 6 C49.928125 4.7934375 49.928125 4.7934375 50.875 3.5625 C53 1 53 1 55.5 0.1875 C57.2325 0.0946875 57.2325 0.0946875 59 0 C59.91523438 -0.061875 60.83046875 -0.12375 61.7734375 -0.1875 C68.69385041 -0.46640833 73.18092207 0.15721269 79 4 C79.33 4.99 79.66 5.98 80 7 C80.63421875 7.30679688 81.2684375 7.61359375 81.921875 7.9296875 C84.53108058 9.27352646 85.05757231 10.4846244 86.25 13.125 C86.58515625 13.84945312 86.9203125 14.57390625 87.265625 15.3203125 C87.50796875 15.87460938 87.7503125 16.42890625 88 17 C88.99 17 89.98 17 91 17 C90.80792969 17.58007812 90.61585938 18.16015625 90.41796875 18.7578125 C89.92905453 21.380586 90.31046867 22.4340327 91.3125 24.875 C97.33356879 41.9991406 97.12466681 63.69877446 92 81 C91.54753906 82.65128906 91.54753906 82.65128906 91.0859375 84.3359375 C89.3485951 90.16945304 87.84898202 94.07463361 83 98 C81.95206269 99.09821713 80.91056058 100.20260462 79.875 101.3125 C77 104 77 104 74 104 C73.67 105.32 73.34 106.64 73 108 C72.01 107.67 71.02 107.34 70 107 C68.9275 107.185625 67.855 107.37125 66.75 107.5625 C62.5221001 108.16197834 58.46751423 107.81247787 54.25 107.3125 C52.33960938 107.09013672 52.33960938 107.09013672 50.390625 106.86328125 C46.64421065 105.90941308 45.45359597 104.89015922 43 102 C41.515 101.01 41.515 101.01 40 100 C40.495 98.515 40.495 98.515 41 97 C40.34 97 39.68 97 39 97 C38.67 96.34 38.34 95.68 38 95 C37.74096918 105.70900547 38.5585932 116.21835931 39.5 126.875 C39.71623118 129.35464438 39.93080229 131.83440256 40.14196777 134.31448364 C40.27236759 135.84297381 40.40570784 137.37121724 40.54260254 138.8991394 C40.92226743 143.31309391 41 147.54446752 41 152 C29.78 152 18.56 152 7 152 C7 145 7 145 9 142 C9.63673502 139.68711863 9.63673502 139.68711863 10.0703125 137.11328125 C10.33134766 135.7065918 10.33134766 135.7065918 10.59765625 134.27148438 C10.77167969 133.29501953 10.94570313 132.31855469 11.125 131.3125 C11.30675781 130.32443359 11.48851562 129.33636719 11.67578125 128.31835938 C12.1234082 125.87997049 12.56455414 123.4405885 13 121 C12.67 121.33 12.34 121.66 12 122 C11.01 122 10.02 122 9 122 C9 121.34 9 120.68 9 120 C10.65 119.67 12.3 119.34 14 119 C13.979375 117.80375 13.95875 116.6075 13.9375 115.375 C13.89440147 112.8752855 14.05697642 110.68079729 14.49801636 108.20993042 C14.97227922 105.17726029 15.12684739 102.37028851 15.12939453 99.30517578 C15.13412277 97.6628447 15.13412277 97.6628447 15.13894653 95.98733521 C15.1369223 94.81846771 15.13489807 93.64960022 15.1328125 92.4453125 C15.13424759 90.62203934 15.13424759 90.62203934 15.13571167 88.76193237 C15.13639109 86.19496611 15.13455339 83.62799811 15.13037109 81.06103516 C15.12502882 77.14611925 15.13031942 73.23131855 15.13671875 69.31640625 C15.13605775 66.81770808 15.13477612 64.31900998 15.1328125 61.8203125 C15.13584885 60.07308395 15.13584885 60.07308395 15.13894653 58.29055786 C15.12215487 52.42447215 14.85355006 46.80280083 14 41 C13.93972169 39.16753945 13.91203785 37.33327489 13.9375 35.5 C13.94652344 34.6440625 13.95554687 33.788125 13.96484375 32.90625 C13.97644531 32.2771875 13.98804688 31.648125 14 31 C12.68 31 11.36 31 10 31 C10 30.34 10 29.68 10 29 C10.99 29 11.98 29 13 29 C12.690625 28.195625 12.38125 27.39125 12.0625 26.5625 C11.03232454 23.10838227 10.61912542 20.02139313 10.28515625 16.45703125 C9.79735475 12.25391968 8.88891653 8.13389336 8 4 C7.34 4 6.68 4 6 4 C4.81760633 7.84951799 3.65694713 11.70526508 2.5 15.5625 C2.16613281 16.64853516 1.83226562 17.73457031 1.48828125 18.85351562 C-0.18064189 24.45632903 -1.18182497 29.11341647 -1 35 C-1.32186279 35.76280273 -1.64372559 36.52560547 -1.9753418 37.31152344 C-3.91558489 42.4022923 -3.33682455 47.92619952 -3.3125 53.3125 C-3.30758545 54.57763428 -3.3026709 55.84276855 -3.29760742 57.14624023 C-3.15768067 68.33535755 -1.52816503 78.26616241 1.34765625 89.078125 C1.57880127 89.94751709 1.80994629 90.81690918 2.0480957 91.71264648 C2.50660012 93.41094686 2.97728742 95.1060177 3.46166992 96.79711914 C5.10673538 102.67979385 5.10673538 102.67979385 4 106 C-6.23 106 -16.46 106 -27 106 C-27 106.66 -27 107.32 -27 108 C-28.32 107.67 -29.64 107.34 -31 107 C-30.01 106.67 -29.02 106.34 -28 106 C-28.185625 105.21625 -28.37125 104.4325 -28.5625 103.625 C-29 101 -29 101 -28 99 C-27.71043155 97.19060618 -27.46630518 95.37382543 -27.24609375 93.5546875 C-27.11396484 92.47832031 -26.98183594 91.40195313 -26.84570312 90.29296875 C-26.71099609 89.16503906 -26.57628906 88.03710938 -26.4375 86.875 C-26.22963867 85.17150391 -26.22963867 85.17150391 -26.01757812 83.43359375 C-25.67508396 80.62277956 -25.33603805 77.81159213 -25 75 C-25.47308594 75.96679688 -25.94617188 76.93359375 -26.43359375 77.9296875 C-30.26789291 85.5492664 -34.14475957 91.92473178 -40.21484375 98.046875 C-42.21611597 99.97065645 -42.21611597 99.97065645 -43 103 C-45.03125 103.87890625 -45.03125 103.87890625 -47.5 104.5625 C-49.91495405 105.20384717 -49.91495405 105.20384717 -52 106 C-52.33 106.66 -52.66 107.32 -53 108 C-66.19017433 108.58478605 -66.19017433 108.58478605 -72 105 C-74.95588658 101.0705756 -75.47779376 97.85783444 -75.75 93 C-75.86601562 91.205625 -75.86601562 91.205625 -75.984375 89.375 C-75.99859292 86.30392953 -75.67923023 83.97217306 -75 81 C-71.89192075 62.86329658 -69.0356532 41.89304039 -75 24 C-75.28875 22.80375 -75.5775 21.6075 -75.875 20.375 C-76.62734467 17.2801276 -77.56251717 14.31451517 -78.625 11.3125 C-79.73422447 8.09073244 -80.33344223 5.44556972 -80 2 C-77.19724228 1.06574743 -75.6811461 0.90050956 -72.80395508 0.97827148 C-71.96331009 0.99836777 -71.1226651 1.01846405 -70.25654602 1.03916931 C-69.35333115 1.06620438 -68.45011627 1.09323944 -67.51953125 1.12109375 C-66.12754768 1.15651024 -66.12754768 1.15651024 -64.70744324 1.19264221 C-61.74230505 1.26924009 -58.77743058 1.35328129 -55.8125 1.4375 C-53.8027473 1.49072455 -51.79298171 1.54346493 -49.78320312 1.59570312 C-44.85530162 1.72485006 -39.92762377 1.86067307 -35 2 C-34.5008139 3.24348487 -34.01003832 4.49034764 -33.52270508 5.73852539 C-33.24848221 6.43248917 -32.97425934 7.12645294 -32.69172668 7.84144592 C-31.56222407 11.36609304 -31.59724412 14.76751224 -31.6875 18.4375 C-31.70006836 19.54629517 -31.70006836 19.54629517 -31.71289062 20.67749023 C-31.83004823 26.0064037 -32.50635757 30.86560413 -34 36 C-34.66 36 -35.32 36 -36 36 C-36.37511719 37.06734375 -36.37511719 37.06734375 -36.7578125 38.15625 C-38.13020633 41.29808242 -39.82927489 43.75178061 -41.875 46.5 C-42.55304688 47.4178125 -43.23109375 48.335625 -43.9296875 49.28125 C-44.61289062 50.1784375 -45.29609375 51.075625 -46 52 C-47.05574219 53.40765625 -47.05574219 53.40765625 -48.1328125 54.84375 C-48.74898438 55.5553125 -49.36515625 56.266875 -50 57 C-50.66 57 -51.32 57 -52 57 C-52 57.66 -52 58.32 -52 59 C-52.66 59 -53.32 59 -54 59 C-54 59.66 -54 60.32 -54 61 C-54.66 61 -55.32 61 -56 61 C-56.226875 61.53625 -56.45375 62.0725 -56.6875 62.625 C-57.86248478 64.75116293 -59.03384262 66.25498127 -60.625 68.0625 C-63.31436107 70.75923113 -63.31436107 70.75923113 -63 74 C-63.99 74.495 -63.99 74.495 -65 75 C-65.33 75.99 -65.66 76.98 -66 78 C-65.34 78 -64.68 78 -64 78 C-64 78.66 -64 79.32 -64 80 C-62.06213915 79.52229477 -60.12472326 79.04278429 -58.1875 78.5625 C-57.10855469 78.29566406 -56.02960938 78.02882813 -54.91796875 77.75390625 C-52.9259157 77.23922588 -50.95188476 76.65062825 -49 76 C-49 75.34 -49 74.68 -49 74 C-48.34 74 -47.68 74 -47 74 C-46.67 73.34 -46.34 72.68 -46 72 C-45.08927734 71.7834375 -45.08927734 71.7834375 -44.16015625 71.5625 C-41.56296309 70.88619654 -40.38936378 69.81649962 -38.4375 68 C-36.15112792 65.88166863 -35.03246941 65.01082314 -32 64 C-31.26676204 61.98491642 -31.26676204 61.98491642 -31 60 C-30.34 60 -29.68 60 -29 60 C-28.71253906 59.27683594 -28.42507813 58.55367187 -28.12890625 57.80859375 C-27.42028058 56.04561154 -26.70056442 54.28700434 -25.96484375 52.53515625 C-25.62582031 51.71917969 -25.28679687 50.90320313 -24.9375 50.0625 C-24.59589844 49.24910156 -24.25429688 48.43570313 -23.90234375 47.59765625 C-18.71625071 32.66799446 -23.31086619 16.43322037 -28 2 C-22.17144343 0.65724379 -16.54145213 1.10541527 -10.625 1.4375 C-9.60277344 1.48970703 -8.58054687 1.54191406 -7.52734375 1.59570312 C-5.01786804 1.72469487 -2.5088606 1.85962858 0 2 C0 1.34 0 0.68 0 0 Z M58.5625 35.0625 C57.95929932 35.40273193 57.35609863 35.74296387 56.73461914 36.09350586 C52.46576248 38.56003515 52.46576248 38.56003515 49 42 C49 42.66 49 43.32 49 44 C48.01 44 47.02 44 46 44 C46 44.66 46 45.32 46 46 C44.02 46.99 44.02 46.99 42 48 C42 48.66 42 49.32 42 50 C41.01 50 40.02 50 39 50 C33.29617139 56.29281091 27.28881097 63.70513219 26.8125 72.4375 C26.874375 73.283125 26.93625 74.12875 27 75 C27.66 75 28.32 75 29 75 C28.67 75.99 28.34 76.98 28 78 C28.66 78 29.32 78 30 78 C30 78.66 30 79.32 30 80 C35.77494139 80.34649648 39.99303982 80.29726646 45 77 C45.66 76.01 46.32 75.02 47 74 C47.66 74.33 48.32 74.66 49 75 C51.61857382 73.65456003 51.61857382 73.65456003 54.4375 71.75 C55.40558594 71.12609375 56.37367188 70.5021875 57.37109375 69.859375 C59.51280633 68.34458275 61.33172802 67.0132367 63 65 C63 64.34 63 63.68 63 63 C63.70125 62.979375 64.4025 62.95875 65.125 62.9375 C69.31697864 61.57055044 71.57434757 58.60930412 74 55 C74 54.34 74 53.68 74 53 C74.66 53 75.32 53 76 53 C76 52.34 76 51.68 76 51 C76.66 51 77.32 51 78 51 C78 50.34 78 49.68 78 49 C77.34 49 76.68 49 76 49 C76 48.34 76 47.68 76 47 C76.99 47.33 77.98 47.66 79 48 C82.45075621 45.33350656 83.04194473 42.12700732 84 38 C84 35.12371715 83.71234806 32.77815743 83 30 C76.00655766 23.00655766 65.44386752 31.17651982 58.5625 35.0625 Z M36 90 C37 92 37 92 37 92 Z " fill="#A2E875" transform="translate(421,72)"/>
<path d="M0 0 C1.289133 0.0339814 1.289133 0.0339814 2.60430908 0.06864929 C4.41994349 0.11850053 6.23544421 0.17344773 8.05078125 0.2331543 C10.80448643 0.32344368 13.55826731 0.3984957 16.3125 0.47070312 C18.08335922 0.5212364 19.85419382 0.57264101 21.625 0.625 C22.43781433 0.6479866 23.25062866 0.67097321 24.08807373 0.69465637 C39.49702666 1.21353332 39.49702666 1.21353332 46.515625 5.07421875 C50.10834606 7.25274248 50.10834606 7.25274248 54.078125 8.01171875 C54.078125 8.67171875 54.078125 9.33171875 54.078125 10.01171875 C55.2228125 10.16640625 55.2228125 10.16640625 56.390625 10.32421875 C59.26228984 11.05883069 60.30854594 11.68332525 62.078125 14.01171875 C62.078125 14.67171875 62.078125 15.33171875 62.078125 16.01171875 C63.398125 16.01171875 64.718125 16.01171875 66.078125 16.01171875 C67.068125 18.48671875 67.068125 18.48671875 68.078125 21.01171875 C69.068125 21.01171875 70.058125 21.01171875 71.078125 21.01171875 C71.18125 21.87796875 71.284375 22.74421875 71.390625 23.63671875 C71.91542342 27.00974666 71.91542342 27.00974666 73.515625 29.76171875 C75.57654323 34.04842866 76.2943679 38.34605886 77.078125 43.01171875 C77.078125 42.35171875 77.078125 41.69171875 77.078125 41.01171875 C77.078125 40.02171875 77.078125 39.03171875 77.078125 38.01171875 C92.258125 38.01171875 107.438125 38.01171875 123.078125 38.01171875 C126.59165293 52.06583045 126.64779949 64.54688321 119.140625 77.19921875 C113.98099884 85.0161631 107.70025236 92.38959139 101.078125 99.01171875 C101.738125 99.34171875 102.398125 99.67171875 103.078125 100.01171875 C103.078125 100.67171875 103.078125 101.33171875 103.078125 102.01171875 C101.098125 102.01171875 99.118125 102.01171875 97.078125 102.01171875 C97.078125 103.00171875 97.078125 103.99171875 97.078125 105.01171875 C97.738125 105.34171875 98.398125 105.67171875 99.078125 106.01171875 C99.078125 106.67171875 99.078125 107.33171875 99.078125 108.01171875 C97.428125 108.01171875 95.778125 108.01171875 94.078125 108.01171875 C93.418125 109.99171875 92.758125 111.97171875 92.078125 114.01171875 C98.07226169 115.35734127 100.75811147 114.56941756 106.078125 112.01171875 C107.068125 112.01171875 108.058125 112.01171875 109.078125 112.01171875 C109.573125 110.52671875 109.573125 110.52671875 110.078125 109.01171875 C112.640625 107.82421875 112.640625 107.82421875 115.078125 107.01171875 C114.748125 106.02171875 114.418125 105.03171875 114.078125 104.01171875 C115.068125 103.68171875 116.058125 103.35171875 117.078125 103.01171875 C117.408125 103.67171875 117.738125 104.33171875 118.078125 105.01171875 C118.738125 105.01171875 119.398125 105.01171875 120.078125 105.01171875 C120.078125 104.35171875 120.078125 103.69171875 120.078125 103.01171875 C120.738125 103.01171875 121.398125 103.01171875 122.078125 103.01171875 C121.748125 102.02171875 121.418125 101.03171875 121.078125 100.01171875 C122.00625 99.47546875 122.934375 98.93921875 123.890625 98.38671875 C127.34140467 95.81554958 128.5287921 93.97112506 130.078125 90.01171875 C130.078125 89.35171875 130.078125 88.69171875 130.078125 88.01171875 C130.738125 88.01171875 131.398125 88.01171875 132.078125 88.01171875 C132.38556641 86.96371094 132.38556641 86.96371094 132.69921875 85.89453125 C133.10333984 84.52941406 133.10333984 84.52941406 133.515625 83.13671875 C133.78246094 82.23179688 134.04929687 81.326875 134.32421875 80.39453125 C135.078125 78.01171875 135.078125 78.01171875 136.078125 76.01171875 C135.418125 76.01171875 134.758125 76.01171875 134.078125 76.01171875 C134.408125 75.02171875 134.738125 74.03171875 135.078125 73.01171875 C135.39739024 65.62166748 135.24709174 58.31776089 134.078125 51.01171875 C132.758125 51.01171875 131.438125 51.01171875 130.078125 51.01171875 C130.078125 50.35171875 130.078125 49.69171875 130.078125 49.01171875 C130.738125 49.01171875 131.398125 49.01171875 132.078125 49.01171875 C131.088125 45.38171875 130.098125 41.75171875 129.078125 38.01171875 C132.07391304 36.51382473 134.72219919 37.0108922 138.0546875 37.1328125 C139.08255875 37.16822899 139.08255875 37.16822899 140.13119507 37.20436096 C142.32204916 37.28099732 144.51254972 37.36502121 146.703125 37.44921875 C148.18748264 37.50243951 149.67185759 37.55517991 151.15625 37.60742188 C154.79709237 37.73661205 158.43765344 37.87242949 162.078125 38.01171875 C161.08120576 43.17916522 160.02673976 48.32535333 158.82421875 53.44921875 C158.50227539 54.82207031 158.50227539 54.82207031 158.17382812 56.22265625 C157.7348191 58.08290815 157.29210552 59.94228967 156.84570312 61.80078125 C154.72026388 70.91897982 153.88272851 79.84780392 153.890625 89.19921875 C153.8896582 90.41762451 153.8896582 90.41762451 153.88867188 91.66064453 C153.9448362 98.18464092 154.61304334 104.47349889 155.640625 110.91015625 C156.02957497 113.66753372 156.16136106 116.23371526 156.078125 119.01171875 C156.738125 119.34171875 157.398125 119.67171875 158.078125 120.01171875 C158.078125 121.00171875 158.078125 121.99171875 158.078125 123.01171875 C158.738125 123.34171875 159.398125 123.67171875 160.078125 124.01171875 C159.748125 125.00171875 159.418125 125.99171875 159.078125 127.01171875 C159.21261349 131.35078567 159.21261349 131.35078567 161.078125 135.01171875 C161.078125 137.32171875 161.078125 139.63171875 161.078125 142.01171875 C145.238125 142.50671875 145.238125 142.50671875 129.078125 143.01171875 C129.078125 137.1411294 129.16422587 132.24814144 130.015625 126.57421875 C130.18964844 125.37925781 130.36367188 124.18429688 130.54296875 122.953125 C131.078125 120.01171875 131.078125 120.01171875 132.078125 118.01171875 C130.17397042 118.13051152 130.17397042 118.13051152 128.078125 119.01171875 C126.34142747 121.27150072 126.34142747 121.27150072 124.828125 124.07421875 C121.58462379 129.44035683 117.99298112 134.06853534 113.078125 138.01171875 C112.418125 138.01171875 111.758125 138.01171875 111.078125 138.01171875 C111.078125 138.67171875 111.078125 139.33171875 111.078125 140.01171875 C105.98452284 143.08572388 102.09128129 143.44778557 96.328125 143.32421875 C95.56113281 143.32744141 94.79414062 143.33066406 94.00390625 143.33398438 C88.34569793 143.27929168 88.34569793 143.27929168 86.078125 141.01171875 C85.418125 141.34171875 84.758125 141.67171875 84.078125 142.01171875 C79.64510434 128.32717673 82.43930416 113.05875451 84.078125 99.01171875 C84.408125 99.01171875 84.738125 99.01171875 85.078125 99.01171875 C85.078125 89.77171875 85.078125 80.53171875 85.078125 71.01171875 C84.418125 71.01171875 83.758125 71.01171875 83.078125 71.01171875 C83.1709375 69.65046875 83.1709375 69.65046875 83.265625 68.26171875 C83.28110828 60.6594276 80.45193445 53.13314711 78.078125 46.01171875 C77.088125 50.63171875 76.098125 55.25171875 75.078125 60.01171875 C75.738125 60.34171875 76.398125 60.67171875 77.078125 61.01171875 C75.593125 61.50671875 75.593125 61.50671875 74.078125 62.01171875 C73.38004488 63.93974956 72.68572281 65.86931361 72.01953125 67.80859375 C69.99221966 72.5530076 66.80219609 76.14968321 62.203125 78.44921875 C61.501875 78.63484375 60.800625 78.82046875 60.078125 79.01171875 C60.078125 79.67171875 60.078125 80.33171875 60.078125 81.01171875 C58.428125 81.67171875 56.778125 82.33171875 55.078125 83.01171875 C55.078125 83.67171875 55.078125 84.33171875 55.078125 85.01171875 C55.738125 85.34171875 56.398125 85.67171875 57.078125 86.01171875 C55.758125 86.34171875 54.438125 86.67171875 53.078125 87.01171875 C53.078125 86.35171875 53.078125 85.69171875 53.078125 85.01171875 C52.088125 85.01171875 51.098125 85.01171875 50.078125 85.01171875 C50.078125 85.67171875 50.078125 86.33171875 50.078125 87.01171875 C45.128125 88.00171875 45.128125 88.00171875 40.078125 89.01171875 C40.408125 90.00171875 40.738125 90.99171875 41.078125 92.01171875 C39.428125 92.01171875 37.778125 92.01171875 36.078125 92.01171875 C36.078125 91.35171875 36.078125 90.69171875 36.078125 90.01171875 C27.498125 90.01171875 18.918125 90.01171875 10.078125 90.01171875 C11.60468914 113.19208364 11.60468914 113.19208364 22.078125 133.01171875 C22.201875 133.60984375 22.325625 134.20796875 22.453125 134.82421875 C23.3040031 137.80229209 25.13814115 139.63367403 27.078125 142.01171875 C27.078125 142.67171875 27.078125 143.33171875 27.078125 144.01171875 C26.57055664 143.85324463 26.06298828 143.69477051 25.54003906 143.53149414 C22.26489864 142.84002508 19.02116431 142.77732715 15.6875 142.6953125 C14.63057953 142.66414085 14.63057953 142.66414085 13.55230713 142.63233948 C11.31100819 142.56718038 9.06959636 142.50811627 6.828125 142.44921875 C5.30467603 142.40600149 3.78123829 142.36238618 2.2578125 142.31835938 C-1.46863091 142.21153384 -5.19519994 142.11017236 -8.921875 142.01171875 C-8.921875 142.67171875 -8.921875 143.33171875 -8.921875 144.01171875 C-10.571875 144.01171875 -12.221875 144.01171875 -13.921875 144.01171875 C-15.31339152 139.21871742 -14.60850189 134.86036093 -13.921875 130.01171875 C-13.261875 130.01171875 -12.601875 130.01171875 -11.921875 130.01171875 C-11.921875 128.69171875 -11.921875 127.37171875 -11.921875 126.01171875 C-12.581875 125.68171875 -13.241875 125.35171875 -13.921875 125.01171875 C-12.921875 123.01171875 -12.921875 123.01171875 -10.921875 121.01171875 C-9.11450455 115.05802786 -8.40390666 109.20202002 -7.921875 103.01171875 C-7.261875 103.01171875 -6.601875 103.01171875 -5.921875 103.01171875 C-6.581875 100.04171875 -7.241875 97.07171875 -7.921875 94.01171875 C-6.931875 93.51671875 -6.931875 93.51671875 -5.921875 93.01171875 C-4.45046402 85.52428565 -4.77423197 77.86222837 -4.796875 70.26171875 C-4.79300781 68.94816406 -4.78914062 67.63460937 -4.78515625 66.28125 C-4.78644531 65.02183594 -4.78773438 63.76242188 -4.7890625 62.46484375 C-4.79019043 61.32176758 -4.79131836 60.17869141 -4.79248047 59.00097656 C-4.90240583 56.46149322 -5.21782434 54.43136779 -5.921875 52.01171875 C-6.1362684 50.26480956 -6.32295153 48.51431645 -6.484375 46.76171875 C-6.56816406 45.8696875 -6.65195312 44.97765625 -6.73828125 44.05859375 C-6.79886719 43.383125 -6.85945312 42.70765625 -6.921875 42.01171875 C-7.581875 42.01171875 -8.241875 42.01171875 -8.921875 42.01171875 C-8.41583508 39.84297623 -7.92203687 38.01204248 -6.921875 36.01171875 C-7.39797428 34.41338545 -7.87867537 32.81627493 -8.3828125 31.2265625 C-9.26006294 27.62220744 -9.37675321 23.96470365 -9.578125 20.26953125 C-9.6915625 19.52445313 -9.805 18.779375 -9.921875 18.01171875 C-10.581875 17.68171875 -11.241875 17.35171875 -11.921875 17.01171875 C-11.921875 15.03171875 -11.921875 13.05171875 -11.921875 11.01171875 C-12.581875 10.68171875 -13.241875 10.35171875 -13.921875 10.01171875 C-13.921875 7.37171875 -13.921875 4.73171875 -13.921875 2.01171875 C-9.24204922 -0.39583868 -5.11414776 -0.18103483 0 0 Z M48.890625 36.51171875 C48.17519531 36.79015625 47.45976563 37.06859375 46.72265625 37.35546875 C45.90861328 37.6803125 45.90861328 37.6803125 45.078125 38.01171875 C45.408125 39.00171875 45.738125 39.99171875 46.078125 41.01171875 C45.52640625 40.7796875 44.9746875 40.54765625 44.40625 40.30859375 C40.99417466 39.87349689 39.57175526 41.28823032 36.828125 43.26171875 C35.93609375 43.885625 35.0440625 44.50953125 34.125 45.15234375 C33.11179687 46.07273437 33.11179687 46.07273437 32.078125 47.01171875 C32.078125 48.00171875 32.078125 48.99171875 32.078125 50.01171875 C30.428125 50.67171875 28.778125 51.33171875 27.078125 52.01171875 C27.078125 52.67171875 27.078125 53.33171875 27.078125 54.01171875 C26.418125 54.01171875 25.758125 54.01171875 25.078125 54.01171875 C20.42658401 59.85568711 16.94287327 65.43762203 17.078125 73.01171875 C17.738125 74.00171875 18.398125 74.99171875 19.078125 76.01171875 C27.43820254 75.8746683 32.35707213 72.78256448 39.078125 68.01171875 C40.068125 67.35171875 41.058125 66.69171875 42.078125 66.01171875 C42.078125 65.02171875 42.078125 64.03171875 42.078125 63.01171875 C42.6453125 62.93953125 43.2125 62.86734375 43.796875 62.79296875 C49.36916839 60.8846491 53.61398391 54.45065935 56.55078125 49.55859375 C58.5287718 45.3899255 59.87607161 41.68540604 59.078125 37.01171875 C55.06024648 34.33313307 53.14300054 34.83865296 48.890625 36.51171875 Z M132.078125 107.01171875 C133.078125 110.01171875 133.078125 110.01171875 133.078125 110.01171875 Z M131.078125 111.01171875 C130.748125 112.66171875 130.418125 114.31171875 130.078125 116.01171875 C130.738125 116.01171875 131.398125 116.01171875 132.078125 116.01171875 C132.078125 114.36171875 132.078125 112.71171875 132.078125 111.01171875 C131.748125 111.01171875 131.418125 111.01171875 131.078125 111.01171875 Z " fill="#A2E875" transform="translate(669.921875,35.98828125)"/>
<path d="M0 0 C2.96029005 1.02078967 3.93808237 1.90116993 5.625 4.59375 C7.19360491 8.47961216 7.34281611 11.76509674 7.1875 15.875 C7.16719727 16.90753906 7.16719727 16.90753906 7.14648438 17.9609375 C7.1114837 19.64097001 7.05768954 21.3205935 7 23 C7.66 23.33 8.32 23.66 9 24 C8.34 24.66 7.68 25.32 7 26 C7.99 26 8.98 26 10 26 C10.66 26 11.32 26 12 26 C12 24.35 12 22.7 12 21 C13.485 21.495 13.485 21.495 15 22 C16.10836423 20.11683841 16.10836423 20.11683841 17 18 C16.505 17.01 16.505 17.01 16 16 C17.65 16.33 19.3 16.66 21 17 C21.495 18.98 21.495 18.98 22 21 C22.66 21 23.32 21 24 21 C24.4021875 22.2065625 24.4021875 22.2065625 24.8125 23.4375 C25.4003125 24.7059375 25.4003125 24.7059375 26 26 C27.485 26.495 27.485 26.495 29 27 C30.64820195 29.60242414 31 30.86248779 31 34 C32.485 34.495 32.485 34.495 34 35 C34.12375 35.804375 34.2475 36.60875 34.375 37.4375 C34.69893503 39.28392968 35.03481725 41.13235872 35.51171875 42.9453125 C37.81384495 51.79462031 37.66773181 61.03594155 36 70 C36.721875 69.0925 37.44375 68.185 38.1875 67.25 C40.53971213 64.42071949 43.086774 62.25775015 46 60 C48.79245093 57.54182045 48.79245093 57.54182045 51 55 C51 54.01 51 53.02 51 52 C53.31 52 55.62 52 58 52 C58.0825 52.556875 58.165 53.11375 58.25 53.6875 C59.22199456 56.68448323 61.02257608 58.57606101 63 61 C63 61.66 63 62.32 63 63 C63.66 63 64.32 63 65 63 C66.35278115 64.98689731 67.68568305 66.98745218 69 69 C69.66 69.33 70.32 69.66 71 70 C71.9296875 71.96875 71.9296875 71.96875 72.875 74.5 C74.52203179 78.80952678 76.32312041 83.00364396 78.265625 87.1875 C79 89 79 89 79 91 C79.66 91 80.32 91 81 91 C82.61471443 105.12875127 83.85598079 119.43043073 76 132 C74.67479497 132.68268138 73.34187818 133.3507041 72 134 C70.71745356 136.53770003 70.71745356 136.53770003 70 139 C69.01 138.67 68.02 138.34 67 138 C64.96368634 138.40840512 62.94348351 138.89954256 60.9375 139.4375 C55.75998925 140.72319059 51.23922254 141.24931208 45.92578125 140.91015625 C43.75631 140.79476626 43.75631 140.79476626 42 143 C41.01 142.67 40.02 142.34 39 142 C39.66 141.01 40.32 140.02 41 139 C40.15824219 139.05027344 39.31648438 139.10054687 38.44921875 139.15234375 C34.47781419 138.9769363 31.52400497 137.96674572 27.8125 136.5625 C26.60207031 136.11003906 25.39164062 135.65757812 24.14453125 135.19140625 C22.58798828 134.60166016 22.58798828 134.60166016 21 134 C20.01 133.67 19.02 133.34 18 133 C17.67 132.34 17.34 131.68 17 131 C15.10931015 130.01115761 13.18679506 129.08267723 11.25 128.1875 C6.66361541 125.95129829 3.33290777 123.938891 0 120 C-0.94875 119.195625 -1.8975 118.39125 -2.875 117.5625 C-5 115 -5 115 -5.0625 111.9375 C-3.52064685 107.67472954 -1.08971067 105.83823898 2.4375 103.125 C5.41472315 100.65608324 7.59531446 98.02303325 10 95 C8.02 94.505 8.02 94.505 6 94 C5.67 94.66 5.34 95.32 5 96 C1.04 95.67 -2.92 95.34 -7 95 C-7.33 95.66 -7.66 96.32 -8 97 C-13.75 97.125 -13.75 97.125 -16 96 C-15.67 95.34 -15.34 94.68 -15 94 C-16.55460937 93.52820313 -16.55460937 93.52820313 -18.140625 93.046875 C-19.51062131 92.61523233 -20.88040186 92.1829044 -22.25 91.75 C-22.93191406 91.54503906 -23.61382812 91.34007812 -24.31640625 91.12890625 C-28.54997955 89.77251869 -31.04725955 88.2901965 -34 85 C-34.66 85 -35.32 85 -36 85 C-41 79.52380952 -41 79.52380952 -41 77 C-40.34 77 -39.68 77 -39 77 C-38.505 75.515 -38.505 75.515 -38 74 C-36.515 73.01 -36.515 73.01 -35 72 C-34.505 70.515 -34.505 70.515 -34 69 C-32.33720673 67.9935725 -30.67016516 66.99414593 -29 66 C-27.21655822 63.93045153 -27.21655822 63.93045153 -26 62 C-26.66 62 -27.32 62 -28 62 C-28 62.66 -28 63.32 -28 64 C-28.66 64 -29.32 64 -30 64 C-30 64.66 -30 65.32 -30 66 C-30.66 66 -31.32 66 -32 66 C-32 65.34 -32 64.68 -32 64 C-32.99 64 -33.98 64 -35 64 C-35.33 64.66 -35.66 65.32 -36 66 C-40.7390861 66 -45.38451275 65.55039828 -50.1015625 65.12109375 C-52.93990269 64.76821823 -52.93990269 64.76821823 -55 66 C-56.125 63.1875 -56.125 63.1875 -57 60 C-55 57 -55 57 -53 55 C-52.34 54.01 -51.68 53.02 -51 52 C-50.34 52.33 -49.68 52.66 -49 53 C-49 52.34 -49 51.68 -49 51 C-48.34 51 -47.68 51 -47 51 C-46.67 49.68 -46.34 48.36 -46 47 C-45.0409375 46.8453125 -45.0409375 46.8453125 -44.0625 46.6875 C-43.381875 46.460625 -42.70125 46.23375 -42 46 C-41.67 45.01 -41.34 44.02 -41 43 C-39.66015625 41.39453125 -39.66015625 41.39453125 -38.0625 39.8125 C-37.53785156 39.28269531 -37.01320313 38.75289062 -36.47265625 38.20703125 C-35 37 -35 37 -33 37 C-33 36.34 -33 35.68 -33 35 C-32.34 35 -31.68 35 -31 35 C-30.5978125 34.1028125 -30.5978125 34.1028125 -30.1875 33.1875 C-29.00082594 31.00152146 -27.90400887 29.58667406 -26 28 C-25.34 28 -24.68 28 -24 28 C-24 27.34 -24 26.68 -24 26 C-23.34 26 -22.68 26 -22 26 C-21.731875 25.360625 -21.46375 24.72125 -21.1875 24.0625 C-20 22 -20 22 -17 21 C-17 20.34 -17 19.68 -17 19 C-16.34 19 -15.68 19 -15 19 C-15 18.34 -15 17.68 -15 17 C-14.34 17 -13.68 17 -13 17 C-12.34 15.02 -11.68 13.04 -11 11 C-10.01 11.33 -9.02 11.66 -8 12 C-8 11.34 -8 10.68 -8 10 C-7.34 10 -6.68 10 -6 10 C-5.9175 9.4225 -5.835 8.845 -5.75 8.25 C-4.7924861 5.3774583 -3.18571625 4.04910899 -1 2 C-0.67 1.34 -0.34 0.68 0 0 Z M4 29 C3.34444881 31.52733235 3.34444881 31.52733235 3 34 C4.7074998 32.71937515 6.37373596 31.38232443 8 30 C8 29.34 8 28.68 8 28 C5.9254644 27.8509288 5.9254644 27.8509288 4 29 Z M11 93 C11.33 93.66 11.66 94.32 12 95 C12.33 94.34 12.66 93.68 13 93 C12.34 93 11.68 93 11 93 Z " fill="#A2E975" transform="translate(93,67)"/>
<path d="M0 0 C0 0.66 0 1.32 0 2 C0.92619141 1.94779297 0.92619141 1.94779297 1.87109375 1.89453125 C7.47330408 1.71546517 11.74246332 2.34366315 16.96484375 4.3515625 C19.17066209 5.1811455 19.17066209 5.1811455 22.3125 4.875 C23.199375 4.91625 24.08625 4.9575 25 5 C26.36176922 6.64351457 27.68962066 8.31522656 29 10 C31.90037033 11.86632525 34.919257 13.45304572 38 15 C38 15.66 38 16.32 38 17 C38.7425 17.268125 39.485 17.53625 40.25 17.8125 C42.89061949 18.95276751 44.85552844 20.09380306 47 22 C47 22.66 47 23.32 47 24 C47.66 24 48.32 24 49 24 C49 24.66 49 25.32 49 26 C50.485 26.495 50.485 26.495 52 27 C51.7215625 28.423125 51.7215625 28.423125 51.4375 29.875 C50.71313368 32.89868793 50.71313368 32.89868793 52 35 C50.02 34.505 50.02 34.505 48 34 C47.608125 34.763125 47.21625 35.52625 46.8125 36.3125 C44.83331022 39.24716071 43.1133183 40.40126898 40 42 C40.66 42.99 41.32 43.98 42 45 C40.35 45 38.7 45 37 45 C40.15309052 47.10206035 40.5224121 47.23137625 44.01953125 46.90625 C44.79490234 46.84566406 45.57027344 46.78507812 46.36914062 46.72265625 C47.98642498 46.57527782 49.6036146 46.42685558 51.22070312 46.27734375 C56.03384486 45.90312098 59.45468207 46.10558777 64 48 C64.98742187 48.35320312 65.97484375 48.70640625 66.9921875 49.0703125 C68.41917969 49.59238281 68.41917969 49.59238281 69.875 50.125 C70.84179688 50.47820312 71.80859375 50.83140625 72.8046875 51.1953125 C73.52914062 51.46085937 74.25359375 51.72640625 75 52 C75 52.66 75 53.32 75 54 C75.99 54 76.98 54 78 54 C78 54.66 78 55.32 78 56 C78.804375 56.268125 79.60875 56.53625 80.4375 56.8125 C81.283125 57.204375 82.12875 57.59625 83 58 C83.33 58.99 83.66 59.98 84 61 C84.66 61 85.32 61 86 61 C86.495 63.475 86.495 63.475 87 66 C85.515 66.495 85.515 66.495 84 67 C83.67 67.66 83.34 68.32 83 69 C82.34 69 81.68 69 81 69 C80.71125 69.639375 80.4225 70.27875 80.125 70.9375 C79 73 79 73 77 74 C76.505 75.485 76.505 75.485 76 77 C73.9375 77.6875 73.9375 77.6875 72 78 C72 78.66 72 79.32 72 80 C72.61875 79.67 73.2375 79.34 73.875 79 C76 78 76 78 78 78 C78.66 77.34 79.32 76.68 80 76 C81.8918457 75.83300781 81.8918457 75.83300781 84.17578125 75.953125 C85.00400391 75.99566406 85.83222656 76.03820312 86.68554688 76.08203125 C87.55244141 76.13746094 88.41933594 76.19289063 89.3125 76.25 C90.16779297 76.28996094 91.02308594 76.32992187 91.90429688 76.37109375 C96.30670933 76.62343962 99.99187424 76.98354085 104 79 C103.50331411 83.0632854 102.69574838 84.74207565 99.48999023 87.26831055 C94.76887185 91.15933497 90.47835942 95.37740043 86.16015625 99.70703125 C84.94881264 100.91693977 84.94881264 100.91693977 83.71299744 102.15129089 C82.02187355 103.84173886 80.33199344 105.53343195 78.64331055 107.22631836 C76.04915298 109.8258748 73.44964575 112.41999675 70.84960938 115.01367188 C69.20280389 116.66113742 67.55630824 118.30891274 65.91015625 119.95703125 C65.13108414 120.73407913 64.35201202 121.51112701 63.54933167 122.3117218 C62.83446091 123.02974472 62.11959015 123.74776764 61.38305664 124.48754883 C60.43663048 125.43516838 60.43663048 125.43516838 59.47108459 126.40193176 C57.9094928 127.95039771 57.9094928 127.95039771 57 130 C56.34 130 55.68 130 55 130 C55 130.99 55 131.98 55 133 C54.01 133 53.02 133 52 133 C51.505 135.97 51.505 135.97 51 139 C50.67 138.34 50.34 137.68 50 137 C49.34 137.66 48.68 138.32 48 139 C48 139.66 48 140.32 48 141 C47.01 141 46.02 141 45 141 C45.33 141.66 45.66 142.32 46 143 C45.01 143 44.02 143 43 143 C40.08038976 136.26143529 38.56064563 130.68312993 38.95703125 123.3125 C39.13169189 120.83874615 39.13169189 120.83874615 38 118 C38 117.34 38 116.68 38 116 C38.99 116 39.98 116 41 116 C41.33 113.69 41.66 111.38 42 109 C41.38125 109.78375 40.7625 110.5675 40.125 111.375 C38 114 38 114 36 116 C35.505 116.53625 35.01 117.0725 34.5 117.625 C33 119 33 119 31 119 C30.505 120.98 30.505 120.98 30 123 C25.44729459 123.36913828 25.44729459 123.36913828 23.546875 121.80078125 C12.18759686 108.57697513 9 92.99974952 9 76 C8.01 76 7.02 76 6 76 C5.34 76.66 4.68 77.32 4 78 C4.66 79.32 5.32 80.64 6 82 C4.35 81.67 2.7 81.34 1 81 C0.401875 81.78375 -0.19625 82.5675 -0.8125 83.375 C-3 86 -3 86 -6 88 C-9.46418389 87.65358161 -11.04929881 86.96713413 -14 85 C-15 83.33333333 -16 81.66666667 -17 80 C-18.485 79.01 -18.485 79.01 -20 78 C-21.00537109 76.35131836 -21.00537109 76.35131836 -21.8984375 74.40234375 C-23.28129072 71.48598393 -24.71912773 68.63686615 -26.2890625 65.81640625 C-26.67320313 65.11580078 -27.05734375 64.41519531 -27.453125 63.69335938 C-28.23455111 62.27246624 -29.02364011 60.85576059 -29.8203125 59.44335938 C-34.44749132 50.93153888 -35.31940517 43.02492304 -35.1875 33.4375 C-35.18685547 32.54353516 -35.18621094 31.64957031 -35.18554688 30.72851562 C-35.15048187 25.40253091 -34.76868841 20.27012771 -34 15 C-33.01 14.67 -32.02 14.34 -31 14 C-31.99 13.01 -32.98 12.02 -34 11 C-32.33333333 11 -30.66666667 11 -29 11 C-28.67 10.34 -28.34 9.68 -28 9 C-27.34 9 -26.68 9 -26 9 C-25.67 8.01 -25.34 7.02 -25 6 C-23.2578125 5.12109375 -23.2578125 5.12109375 -21.125 4.4375 C-18.29073539 3.51191912 -16.54841174 2.69894116 -14 1 C-12.00041636 0.95919217 -9.99954746 0.95745644 -8 1 C-5.29120665 -0.35439668 -2.99066732 -0.06501451 0 0 Z M23 7 C24.485 7.99 24.485 7.99 26 9 C26 8.34 26 7.68 26 7 C25.01 7 24.02 7 23 7 Z M11 70 C10.34 71.32 9.68 72.64 9 74 C9.99 74.495 9.99 74.495 11 75 C11.33 73.35 11.66 71.7 12 70 C11.67 70 11.34 70 11 70 Z " fill="#A2E875" transform="translate(147,21)"/>
<path d="M0 0 C3.03840898 2.09794906 4.061436 3.47689681 5.625 6.8125 C5.83452713 9.50841571 5.91244431 11.94700509 5.8125 14.625 C5.79219727 15.66430664 5.79219727 15.66430664 5.77148438 16.72460938 C5.73638845 18.42091265 5.68258943 20.11681136 5.625 21.8125 C8.25545135 19.32657894 9.57189361 17.32285463 10.625 13.8125 C10.13 12.3275 10.13 12.3275 9.625 10.8125 C11.275 10.8125 12.925 10.8125 14.625 10.8125 C15.285 8.8325 15.945 6.8525 16.625 4.8125 C17.615 5.8025 17.615 5.8025 18.625 6.8125 C19.57375 6.02875 20.5225 5.245 21.5 4.4375 C22.03367187 3.99664062 22.56734375 3.55578125 23.1171875 3.1015625 C24.33551161 2.05999008 25.49160097 0.94589903 26.625 -0.1875 C33.70467244 -1.91424938 41.43655049 -2.4844092 47.90087891 1.33666992 C51.05690864 4.0381992 51.15773762 7.84542379 51.625 11.8125 C51.74958422 15.49740938 51.59350078 19.13355664 51.375 22.8125 C51.33503906 23.74578125 51.29507813 24.6790625 51.25390625 25.640625 C50.98423629 30.85910322 50.32160899 35.74326782 49.09277344 40.81982422 C46.28678369 52.77310623 48.20992767 64.97275515 50.625 76.8125 C50.75519531 77.67230469 50.88539063 78.53210938 51.01953125 79.41796875 C51.15746094 80.27003906 51.29539062 81.12210937 51.4375 82 C51.56769531 82.85980469 51.69789063 83.71960938 51.83203125 84.60546875 C52.43184331 86.9888636 52.43184331 86.9888636 54.69921875 88.11328125 C55.33472656 88.34402344 55.97023438 88.57476562 56.625 88.8125 C55.305 89.1425 53.985 89.4725 52.625 89.8125 C52.8415625 90.45316406 53.058125 91.09382813 53.28125 91.75390625 C53.69890625 93.05134766 53.69890625 93.05134766 54.125 94.375 C54.4034375 95.22191406 54.681875 96.06882812 54.96875 96.94140625 C55.73534476 100.29525831 55.66737692 103.38173544 55.625 106.8125 C41.29166667 106.8125 26.95833333 106.8125 12.625 106.8125 C10.12522457 103.47946609 9.625 102.07946398 9.625 97.8125 C8.965 97.4825 8.305 97.1525 7.625 96.8125 C7.2570056 94.29886083 7.01969302 91.9024603 6.875 89.375 C6.81957031 88.68083984 6.76414062 87.98667969 6.70703125 87.27148438 C6.59099368 85.45532062 6.6002141 83.6321981 6.625 81.8125 C7.285 81.1525 7.945 80.4925 8.625 79.8125 C9.30677998 77.15530163 9.30677998 77.15530163 9.75 74.1875 C9.91757812 73.18460937 10.08515625 72.18171875 10.2578125 71.1484375 C10.43957031 69.99214844 10.43957031 69.99214844 10.625 68.8125 C11.615 68.8125 12.605 68.8125 13.625 68.8125 C13.91375 68.07 14.2025 67.3275 14.5 66.5625 C15.44802644 64.24510203 16.47345911 62.03332885 17.625 59.8125 C16.965 59.8125 16.305 59.8125 15.625 59.8125 C15.625 59.1525 15.625 58.4925 15.625 57.8125 C17.275 57.4825 18.925 57.1525 20.625 56.8125 C20.295 55.8225 19.965 54.8325 19.625 53.8125 C21.605 53.4825 23.585 53.1525 25.625 52.8125 C25.625 52.1525 25.625 51.4925 25.625 50.8125 C26.285 50.8125 26.945 50.8125 27.625 50.8125 C27.295 49.8225 26.965 48.8325 26.625 47.8125 C27.3675 47.420625 28.11 47.02875 28.875 46.625 C31.84824435 44.66536168 33.6059108 42.72896218 35.625 39.8125 C35.625 39.1525 35.625 38.4925 35.625 37.8125 C36.615 37.4825 37.605 37.1525 38.625 36.8125 C39.84369929 34.30802484 39.84369929 34.30802484 40.625 31.8125 C39.965 31.4825 39.305 31.1525 38.625 30.8125 C38.625 30.1525 38.625 29.4925 38.625 28.8125 C37.14 29.3075 37.14 29.3075 35.625 29.8125 C33.05417348 30.27083212 30.48029 30.70077915 27.90234375 31.1171875 C25.27040102 31.65777369 25.27040102 31.65777369 23.625 34.8125 C23.625 34.1525 23.625 33.4925 23.625 32.8125 C22.16199018 33.74268526 20.70474421 34.68194027 19.25 35.625 C18.43789063 36.14707031 17.62578125 36.66914062 16.7890625 37.20703125 C14.39149759 38.79687197 14.39149759 38.79687197 12.625 41.8125 C11.55771687 42.6459711 10.47240361 43.45660685 9.375 44.25 C2.81272348 49.74368035 -1.42293282 59.33315168 -2.375 67.8125 C-3.23703878 78.29165894 -1.68678969 87.90130458 1.625 97.8125 C2.285 98.4725 2.945 99.1325 3.625 99.8125 C3.625 101.7925 3.625 103.7725 3.625 105.8125 C-8.585 105.8125 -20.795 105.8125 -33.375 105.8125 C-36.72414106 99.11421787 -37.52550716 95.86157535 -37.5625 88.5 C-37.57667969 87.22511719 -37.59085938 85.95023437 -37.60546875 84.63671875 C-37.25095764 78.75423777 -35.71314968 73.9435455 -32.75 68.875 C-32.30398438 68.10285156 -31.85796875 67.33070313 -31.3984375 66.53515625 C-30.89183594 65.68244141 -30.89183594 65.68244141 -30.375 64.8125 C-31.035 64.8125 -31.695 64.8125 -32.375 64.8125 C-32.375 64.1525 -32.375 63.4925 -32.375 62.8125 C-31.7975 62.750625 -31.22 62.68875 -30.625 62.625 C-27.44146522 61.47539022 -26.26914079 59.55573838 -24.375 56.8125 C-24.045 55.8225 -23.715 54.8325 -23.375 53.8125 C-24.365 53.3175 -24.365 53.3175 -25.375 52.8125 C-23.065 51.8225 -20.755 50.8325 -18.375 49.8125 C-18.375 48.8225 -18.375 47.8325 -18.375 46.8125 C-17.7975 46.750625 -17.22 46.68875 -16.625 46.625 C-13.50707906 45.4990841 -12.36119837 43.39455789 -10.375 40.8125 C-9.715 40.8125 -9.055 40.8125 -8.375 40.8125 C-8.375 40.1525 -8.375 39.4925 -8.375 38.8125 C-7.715 38.8125 -7.055 38.8125 -6.375 38.8125 C-6.21 37.53375 -6.045 36.255 -5.875 34.9375 C-5.7821875 34.21820313 -5.689375 33.49890625 -5.59375 32.7578125 C-5.3377515 30.80751656 -5.3377515 30.80751656 -5.375 28.8125 C-10.40588732 29.22900047 -14.71430442 29.75631077 -19.375 31.8125 C-20.365 31.8125 -21.355 31.8125 -22.375 31.8125 C-22.375 32.4725 -22.375 33.1325 -22.375 33.8125 C-23.8290625 34.493125 -23.8290625 34.493125 -25.3125 35.1875 C-28.44579582 36.47036221 -28.44579582 36.47036221 -29.375 38.8125 C-28.385 38.4825 -27.395 38.1525 -26.375 37.8125 C-26.375 38.4725 -26.375 39.1325 -26.375 39.8125 C-27.365 40.1425 -28.355 40.4725 -29.375 40.8125 C-30.365 40.3175 -30.365 40.3175 -31.375 39.8125 C-34.54274824 42.20971488 -37.28442317 44.40155886 -39.375 47.8125 C-39.375 48.8025 -39.375 49.7925 -39.375 50.8125 C-40.365 50.8125 -41.355 50.8125 -42.375 50.8125 C-47.45293208 64.87446576 -50.05564267 80.00370305 -44.3515625 94.39453125 C-43.64347765 95.86845254 -42.92550724 97.33768735 -42.1953125 98.80078125 C-40.92339626 101.92000441 -41.09203105 104.48761481 -41.375 107.8125 C-42.365 107.4825 -43.355 107.1525 -44.375 106.8125 C-46.6575699 106.66104901 -48.94387706 106.56363021 -51.23046875 106.49609375 C-52.22292351 106.4649221 -52.22292351 106.4649221 -53.23542786 106.43312073 C-55.34434852 106.36785273 -57.45339135 106.30884656 -59.5625 106.25 C-60.99415315 106.20679311 -62.42579404 106.16317812 -63.85742188 106.11914062 C-67.36315154 106.01219494 -70.86901786 105.91086359 -74.375 105.8125 C-74.2320752 105.13848145 -74.08915039 104.46446289 -73.94189453 103.77001953 C-73.75739746 102.87911621 -73.57290039 101.98821289 -73.3828125 101.0703125 C-73.1986377 100.19004395 -73.01446289 99.30977539 -72.82470703 98.40283203 C-72.25581082 95.12596516 -72.23082945 92.12842276 -72.375 88.8125 C-71.385 88.8125 -70.395 88.8125 -69.375 88.8125 C-69.395625 87.678125 -69.41625 86.54375 -69.4375 85.375 C-69.375 81.8125 -69.375 81.8125 -68.375 80.8125 C-66.10121132 71.98380491 -65.80696048 62.87230268 -65.375 53.8125 C-66.035 53.8125 -66.695 53.8125 -67.375 53.8125 C-67.375 53.1525 -67.375 52.4925 -67.375 51.8125 C-66.715 51.8125 -66.055 51.8125 -65.375 51.8125 C-65.51629287 49.39549013 -65.66286487 46.97899571 -65.8125 44.5625 C-65.85181641 43.88058594 -65.89113281 43.19867188 -65.93164062 42.49609375 C-66.14297766 39.14721463 -66.52280223 36.05085152 -67.375 32.8125 C-67.49705329 30.13709184 -67.41967313 27.49288762 -67.375 24.8125 C-69.025 24.8125 -70.675 24.8125 -72.375 24.8125 C-72.21 24.049375 -72.045 23.28625 -71.875 22.5 C-71.28354604 19.77653764 -71.28354604 19.77653764 -71.375 16.8125 C-71.375 15.8225 -71.375 14.8325 -71.375 13.8125 C-71.705 12.719375 -72.035 11.62625 -72.375 10.5 C-73.375 6.8125 -73.375 6.8125 -73.375 0.8125 C-62.815 0.8125 -52.255 0.8125 -41.375 0.8125 C-40.52595707 4.20867172 -40.29337372 5.68720103 -40.6796875 8.96484375 C-40.76863281 9.74150391 -40.85757813 10.51816406 -40.94921875 11.31835938 C-41.04847656 12.12080078 -41.14773438 12.92324219 -41.25 13.75 C-41.38728516 14.94786133 -41.38728516 14.94786133 -41.52734375 16.16992188 C-41.98869242 20.0913856 -42.51751447 23.95381512 -43.375 27.8125 C-42.715 27.8125 -42.055 27.8125 -41.375 27.8125 C-41.08367188 27.1834375 -40.79234375 26.554375 -40.4921875 25.90625 C-37.95966997 20.61822597 -35.25681523 16.0225491 -31.51171875 11.50390625 C-30.09610363 9.73715775 -30.09610363 9.73715775 -30.375 6.8125 C-29.405625 6.52375 -28.43625 6.235 -27.4375 5.9375 C-24.26835797 5.17035318 -24.26835797 5.17035318 -23.375 2.8125 C-24.035 2.4825 -24.695 2.1525 -25.375 1.8125 C-24.1065625 1.626875 -24.1065625 1.626875 -22.8125 1.4375 C-19.3590476 0.88663764 -19.3590476 0.88663764 -16.0625 -0.25 C-10.37546204 -1.69585711 -5.57213044 -1.96056441 0 0 Z M4.625 23.8125 C5.625 25.8125 5.625 25.8125 5.625 25.8125 Z M-44.375 29.8125 C-44.045 30.8025 -43.715 31.7925 -43.375 32.8125 C-43.045 31.8225 -42.715 30.8325 -42.375 29.8125 C-43.035 29.8125 -43.695 29.8125 -44.375 29.8125 Z M-45.375 34.8125 C-44.375 36.8125 -44.375 36.8125 -44.375 36.8125 Z " fill="#A2E875" transform="translate(907.375,72.1875)"/>
<path d="M0 0 C2.2092142 0.00544751 4.41823268 -0.00002312 6.62744141 -0.00634766 C8.03238977 -0.00568829 9.43733802 -0.00441008 10.84228516 -0.00244141 C12.74034912 -0.00074951 12.74034912 -0.00074951 14.67675781 0.00097656 C17.55322266 0.13037109 17.55322266 0.13037109 18.55322266 1.13037109 C21.52322266 1.13037109 24.49322266 1.13037109 27.55322266 1.13037109 C27.22322266 16.97037109 26.89322266 32.81037109 26.55322266 49.13037109 C21.37088555 48.09390367 20.87761101 47.67638534 17.55322266 44.13037109 C16.06822266 43.63537109 16.06822266 43.63537109 14.55322266 43.13037109 C14.55322266 42.47037109 14.55322266 41.81037109 14.55322266 41.13037109 C10.12717259 39.68512225 10.12717259 39.68512225 5.55322266 39.13037109 C5.22322266 38.47037109 4.89322266 37.81037109 4.55322266 37.13037109 C1.90108332 36.58665232 -0.63964278 36.18417551 -3.32177734 35.88037109 C-4.09102539 35.79247314 -4.86027344 35.7045752 -5.65283203 35.61401367 C-13.79074848 34.81265543 -21.63604161 35.12247717 -28.44677734 40.13037109 C-33.22455512 43.13037109 -33.22455512 43.13037109 -35.44677734 43.13037109 C-35.73552734 43.72849609 -36.02427734 44.32662109 -36.32177734 44.94287109 C-37.44677734 47.13037109 -37.44677734 47.13037109 -39.44677734 50.13037109 C-39.84065522 52.45425056 -40.18163819 54.78830859 -40.44677734 57.13037109 C-37.44677734 58.46370443 -37.44677734 58.46370443 -34.44677734 57.13037109 C-34.11677734 58.45037109 -33.78677734 59.77037109 -33.44677734 61.13037109 C-32.58181641 61.06978516 -31.71685547 61.00919922 -30.82568359 60.94677734 C-18.04252383 60.09631124 -5.24865721 59.60661328 7.55322266 59.13037109 C7.55322266 59.79037109 7.55322266 60.45037109 7.55322266 61.13037109 C8.26349609 61.17935547 8.97376953 61.22833984 9.70556641 61.27880859 C10.62466797 61.35357422 11.54376953 61.42833984 12.49072266 61.50537109 C13.40724609 61.57498047 14.32376953 61.64458984 15.26806641 61.71630859 C16.02216797 61.85294922 16.77626953 61.98958984 17.55322266 62.13037109 C17.88322266 62.79037109 18.21322266 63.45037109 18.55322266 64.13037109 C20.03822266 64.62537109 20.03822266 64.62537109 21.55322266 65.13037109 C22.21322266 65.79037109 22.87322266 66.45037109 23.55322266 67.13037109 C24.21322266 67.13037109 24.87322266 67.13037109 25.55322266 67.13037109 C25.55322266 68.12037109 25.55322266 69.11037109 25.55322266 70.13037109 C26.04822266 68.64537109 26.04822266 68.64537109 26.55322266 67.13037109 C27.21322266 67.13037109 27.87322266 67.13037109 28.55322266 67.13037109 C28.46041016 68.80099609 28.46041016 68.80099609 28.36572266 70.50537109 C28.33784137 75.69129078 29.87929315 80.26800444 31.55322266 85.13037109 C32.21322266 85.13037109 32.87322266 85.13037109 33.55322266 85.13037109 C33.55322266 85.79037109 33.55322266 86.45037109 33.55322266 87.13037109 C32.89322266 87.13037109 32.23322266 87.13037109 31.55322266 87.13037109 C31.88322266 87.79037109 32.21322266 88.45037109 32.55322266 89.13037109 C32.81718185 92.32721023 32.99704449 95.51721122 33.15869141 98.72021484 C33.3167826 102.55163736 33.3167826 102.55163736 34.55322266 106.13037109 C33.89322266 106.13037109 33.23322266 106.13037109 32.55322266 106.13037109 C32.38306641 106.83162109 32.21291016 107.53287109 32.03759766 108.25537109 C30.13036028 115.72200251 27.88248565 123.31662965 22.55322266 129.13037109 C21.89322266 129.13037109 21.23322266 129.13037109 20.55322266 129.13037109 C20.55322266 129.79037109 20.55322266 130.45037109 20.55322266 131.13037109 C21.54322266 131.46037109 22.53322266 131.79037109 23.55322266 132.13037109 C22.96669922 132.25927734 22.38017578 132.38818359 21.77587891 132.52099609 C18.959925 133.29303267 16.50536348 134.6143115 13.92041016 135.95068359 C10.26947341 137.77012732 6.52003692 139.36478694 2.77587891 140.98193359 C0.40860457 141.92849593 0.40860457 141.92849593 -0.44677734 144.13037109 C-1.10677734 144.13037109 -1.76677734 144.13037109 -2.44677734 144.13037109 C-2.44677734 143.47037109 -2.44677734 142.81037109 -2.44677734 142.13037109 C-3.10677734 142.13037109 -3.76677734 142.13037109 -4.44677734 142.13037109 C-4.77677734 142.79037109 -5.10677734 143.45037109 -5.44677734 144.13037109 C-10.48217411 144.15514596 -15.51753515 144.17326659 -20.55297852 144.18530273 C-22.26489887 144.19032208 -23.97681495 144.19713894 -25.6887207 144.20581055 C-28.15365657 144.2179813 -30.61853559 144.22362347 -33.08349609 144.22802734 C-34.22597054 144.23576927 -34.22597054 144.23576927 -35.39152527 144.2436676 C-39.22098809 144.24406912 -42.71241984 143.95149147 -46.44677734 143.13037109 C-48.6784492 143.49893973 -48.6784492 143.49893973 -50.44677734 144.13037109 C-50.44677734 143.47037109 -50.44677734 142.81037109 -50.44677734 142.13037109 C-51.10677734 142.13037109 -51.76677734 142.13037109 -52.44677734 142.13037109 C-52.44677734 126.62037109 -52.44677734 111.11037109 -52.44677734 95.13037109 C-47.44677734 96.13037109 -47.44677734 96.13037109 -45.07177734 97.69287109 C-41.72104565 99.52779559 -39.20792998 99.35161537 -35.44677734 99.13037109 C-35.44677734 100.12037109 -35.44677734 101.11037109 -35.44677734 102.13037109 C-33.53200854 102.49465887 -31.61485442 102.84642416 -29.69677734 103.19287109 C-28.62943359 103.39009766 -27.56208984 103.58732422 -26.46240234 103.79052734 C-23.55068431 104.29662971 -23.55068431 104.29662971 -21.18115234 103.56396484 C-20.60880859 103.42087891 -20.03646484 103.27779297 -19.44677734 103.13037109 C-18.45677734 104.12037109 -18.45677734 104.12037109 -17.44677734 105.13037109 C-17.77677734 105.79037109 -18.10677734 106.45037109 -18.44677734 107.13037109 C-17.61484863 107.16795532 -17.61484863 107.16795532 -16.76611328 107.20629883 C-14.24278892 107.32265036 -11.71980199 107.44519863 -9.19677734 107.56787109 C-8.32408203 107.6071875 -7.45138672 107.64650391 -6.55224609 107.68701172 C-5.70791016 107.72890625 -4.86357422 107.77080078 -3.99365234 107.81396484 C-3.21860352 107.85062256 -2.44355469 107.88728027 -1.64501953 107.92504883 C0.51395125 108.12670303 2.46063274 108.57875067 4.55322266 109.13037109 C10.60740334 109.56643436 15.82404099 109.12312993 21.55322266 107.13037109 C21.55322266 106.14037109 21.55322266 105.15037109 21.55322266 104.13037109 C22.21322266 104.13037109 22.87322266 104.13037109 23.55322266 104.13037109 C23.22322266 103.47037109 22.89322266 102.81037109 22.55322266 102.13037109 C21.89322266 102.13037109 21.23322266 102.13037109 20.55322266 102.13037109 C20.32634766 101.49099609 20.09947266 100.85162109 19.86572266 100.19287109 C18.70986025 97.89794112 18.70986025 97.89794112 16.11572266 97.31787109 C13.43383163 96.95649289 13.43383163 96.95649289 10.55322266 98.13037109 C10.19357422 97.67017578 9.83392578 97.20998047 9.46337891 96.73583984 C6.81924446 94.51346918 4.35110606 94.15249396 0.99072266 93.44287109 C-0.16556641 93.19150391 -1.32185547 92.94013672 -2.51318359 92.68115234 C-5.2769115 92.06886257 -5.2769115 92.06886257 -7.44677734 92.13037109 C-7.44677734 91.47037109 -7.44677734 90.81037109 -7.44677734 90.13037109 C-9.92177734 90.62537109 -9.92177734 90.62537109 -12.44677734 91.13037109 C-12.44677734 90.47037109 -12.44677734 89.81037109 -12.44677734 89.13037109 C-14.65025794 87.9742984 -16.85880891 86.83052388 -19.07177734 85.69287109 C-19.99796875 85.20463867 -19.99796875 85.20463867 -20.94287109 84.70654297 C-24.77963346 82.74777481 -28.16421642 81.59815852 -32.44677734 81.13037109 C-32.44677734 80.14037109 -32.44677734 79.15037109 -32.44677734 78.13037109 C-33.93177734 77.63537109 -33.93177734 77.63537109 -35.44677734 77.13037109 C-37.0089949 75.39268707 -38.50121213 73.59123892 -39.94677734 71.75537109 C-42.90220814 67.95677362 -42.90220814 67.95677362 -46.20068359 64.47021484 C-47.44677734 63.13037109 -47.44677734 63.13037109 -47.88427734 60.06787109 C-48.06990234 59.09849609 -48.25552734 58.12912109 -48.44677734 57.13037109 C-50.39840853 55.69399412 -50.39840853 55.69399412 -52.44677734 55.13037109 C-52.09615234 54.55287109 -51.74552734 53.97537109 -51.38427734 53.38037109 C-50.25910923 50.67996762 -50.61844773 49.86385883 -51.44677734 47.13037109 C-51.48464635 45.4641347 -51.49305579 43.79639513 -51.44677734 42.13037109 C-52.10677734 42.13037109 -52.76677734 42.13037109 -53.44677734 42.13037109 C-53.44677734 41.47037109 -53.44677734 40.81037109 -53.44677734 40.13037109 C-52.78677734 40.13037109 -52.12677734 40.13037109 -51.44677734 40.13037109 C-51.63240234 39.36724609 -51.81802734 38.60412109 -52.00927734 37.81787109 C-52.44677734 35.13037109 -52.44677734 35.13037109 -51.44677734 32.13037109 C-52.10677734 32.13037109 -52.76677734 32.13037109 -53.44677734 32.13037109 C-53.44677734 31.47037109 -53.44677734 30.81037109 -53.44677734 30.13037109 C-52.78677734 30.13037109 -52.12677734 30.13037109 -51.44677734 30.13037109 C-51.95281726 27.96162858 -52.44661548 26.13069483 -53.44677734 24.13037109 C-52.12677734 24.46037109 -50.80677734 24.79037109 -49.44677734 25.13037109 C-49.32302734 24.24349609 -49.19927734 23.35662109 -49.07177734 22.44287109 C-48.50103791 19.41795209 -47.59597054 16.96504765 -46.44677734 14.13037109 C-46.44677734 13.14037109 -46.44677734 12.15037109 -46.44677734 11.13037109 C-45.64240234 11.00662109 -44.83802734 10.88287109 -44.00927734 10.75537109 C-43.16365234 10.54912109 -42.31802734 10.34287109 -41.44677734 10.13037109 C-41.11677734 9.47037109 -40.78677734 8.81037109 -40.44677734 8.13037109 C-38.33241274 7.04586027 -36.17966876 6.03539498 -34.00927734 5.06787109 C-32.24777344 4.27703125 -32.24777344 4.27703125 -30.45068359 3.47021484 C-29.45939453 3.02806641 -28.46810547 2.58591797 -27.44677734 2.13037109 C-26.78677734 1.80037109 -26.12677734 1.47037109 -25.44677734 1.13037109 C-17.04240544 -0.16965158 -8.48194626 -0.0249978 0 0 Z " fill="#A2E875" transform="translate(309.44677734375,35.86962890625)"/>
<path d="M0 0 C7.84913173 4.5524964 11.37325246 9.55067297 15.125 17.8125 C15.125 18.4725 15.125 19.1325 15.125 19.8125 C15.785 20.1425 16.445 20.4725 17.125 20.8125 C17.78262705 23.16053882 18.29353593 25.40867081 18.7265625 27.80078125 C18.857211 28.51567215 18.9878595 29.23056305 19.12246704 29.96711731 C20.35305598 37.25733733 20.58111899 44.45197195 20.51611328 51.83178711 C20.49992396 54.01023141 20.51613526 56.18684287 20.53515625 58.36523438 C20.55471701 69.9698373 19.36845719 80.94165841 13.4375 91.125 C12.81488281 92.21425781 12.19226562 93.30351562 11.55078125 94.42578125 C10.84501953 95.60720703 10.84501953 95.60720703 10.125 96.8125 C9.135 96.8125 8.145 96.8125 7.125 96.8125 C7.125 97.4725 7.125 98.1325 7.125 98.8125 C6.465 98.8125 5.805 98.8125 5.125 98.8125 C5.125 99.4725 5.125 100.1325 5.125 100.8125 C0.11093168 105.78789941 -5.38712855 107.18300228 -12.22729492 107.32763672 C-23.19865306 107.26339796 -23.19865306 107.26339796 -26.875 104.8125 C-26.875 104.1525 -26.875 103.4925 -26.875 102.8125 C-27.49375 102.73 -28.1125 102.6475 -28.75 102.5625 C-30.875 101.8125 -30.875 101.8125 -31.875 99.9375 C-32.37 98.885625 -32.37 98.885625 -32.875 97.8125 C-34.18174304 96.77799509 -35.51323474 95.77342307 -36.875 94.8125 C-36.56715285 98.54206603 -36.25290473 102.27106611 -35.9375 106 C-35.80698242 107.58264648 -35.80698242 107.58264648 -35.67382812 109.19726562 C-35.58681641 110.21884766 -35.49980469 111.24042969 -35.41015625 112.29296875 C-35.331604 113.23035889 -35.25305176 114.16774902 -35.17211914 115.13354492 C-34.91998892 117.83493288 -34.91998892 117.83493288 -34.27905273 120.5324707 C-33.875 122.8125 -33.875 122.8125 -34.875 124.8125 C-34.78321987 126.19216256 -34.62556588 127.56763738 -34.4375 128.9375 C-33.74231008 136.19837254 -33.875 143.51842302 -33.875 150.8125 C-45.095 150.8125 -56.315 150.8125 -67.875 150.8125 C-68.205 149.8225 -68.535 148.8325 -68.875 147.8125 C-67.885 147.8125 -66.895 147.8125 -65.875 147.8125 C-65.689375 145.8634375 -65.689375 145.8634375 -65.5 143.875 C-64.97636672 139.09400048 -64.01186165 134.48135899 -62.875 129.8125 C-63.535 129.4825 -64.195 129.1525 -64.875 128.8125 C-63.885 128.4825 -62.895 128.1525 -61.875 127.8125 C-62.205 126.4925 -62.535 125.1725 -62.875 123.8125 C-62.215 123.8125 -61.555 123.8125 -60.875 123.8125 C-60.895625 122.67167969 -60.91625 121.53085938 -60.9375 120.35546875 C-60.9375 116.68898138 -60.6130895 113.15722582 -60.16333008 109.52270508 C-58.82500224 98.39339286 -58.67735448 87.31705592 -58.6875 76.125 C-58.6867749 75.35338531 -58.6860498 74.58177063 -58.68530273 73.78677368 C-58.68686307 59.09213412 -59.22548702 44.42247213 -60.875 29.8125 C-61.865 29.8125 -62.855 29.8125 -63.875 29.8125 C-63.875 29.1525 -63.875 28.4925 -63.875 27.8125 C-62.885 27.8125 -61.895 27.8125 -60.875 27.8125 C-61.865 26.1625 -62.855 24.5125 -63.875 22.8125 C-63.545 22.4825 -63.215 22.1525 -62.875 21.8125 C-63.27589043 19.41314087 -63.73334582 17.0622964 -64.25 14.6875 C-64.53060523 13.37281252 -64.80926071 12.05770733 -65.0859375 10.7421875 C-65.21274902 10.15679199 -65.33956055 9.57139648 -65.47021484 8.96826172 C-66.040019 5.93365937 -66.43834251 2.86910244 -66.875 -0.1875 C-48.56 0.3075 -48.56 0.3075 -29.875 0.8125 C-30.205 4.4425 -30.535 8.0725 -30.875 11.8125 C-30.545 10.1625 -30.215 8.5125 -29.875 6.8125 C-29.545 6.1525 -29.215 5.4925 -28.875 4.8125 C-27.54371656 4.4710717 -26.20999911 4.139098 -24.875 3.8125 C-23.52614423 2.98306248 -22.19367856 2.12662154 -20.875 1.25 C-14.47171418 -2.39543499 -6.8986495 -2.64041231 0 0 Z M-32.875 13.8125 C-33.205 15.1325 -33.535 16.4525 -33.875 17.8125 C-33.215 17.4825 -32.555 17.1525 -31.875 16.8125 C-32.205 15.8225 -32.535 14.8325 -32.875 13.8125 Z M-0.875 26.8125 C-0.215 27.1425 0.445 27.4725 1.125 27.8125 C1.125 28.4725 1.125 29.1325 1.125 29.8125 C0.135 29.8125 -0.855 29.8125 -1.875 29.8125 C-1.875 29.1525 -1.875 28.4925 -1.875 27.8125 C-5.32587683 28.36464029 -7.96448022 29.93617536 -10.94140625 31.703125 C-12.94499319 32.85265771 -14.98376408 33.86853568 -17.0625 34.875 C-19.90575194 36.28560561 -22.52024505 37.64612544 -24.875 39.8125 C-25.205 40.8025 -25.535 41.7925 -25.875 42.8125 C-27.8125 43.9375 -27.8125 43.9375 -29.875 44.8125 C-30.535 45.1425 -31.195 45.4725 -31.875 45.8125 C-31.875 46.4725 -31.875 47.1325 -31.875 47.8125 C-31.215 48.1425 -30.555 48.4725 -29.875 48.8125 C-30.865 49.1425 -31.855 49.4725 -32.875 49.8125 C-33.205 49.1525 -33.535 48.4925 -33.875 47.8125 C-35.4583253 49.0613427 -35.4583253 49.0613427 -36.875 50.8125 C-36.875 52.1325 -36.875 53.4525 -36.875 54.8125 C-38.195 55.1425 -39.515 55.4725 -40.875 55.8125 C-40.875 56.4725 -40.875 57.1325 -40.875 57.8125 C-41.555625 58.4621875 -41.555625 58.4621875 -42.25 59.125 C-45.37764943 62.37294364 -46.13151396 66.4754981 -46.875 70.8125 C-45.885 70.8125 -44.895 70.8125 -43.875 70.8125 C-43.875 71.4725 -43.875 72.1325 -43.875 72.8125 C-44.865 72.8125 -45.855 72.8125 -46.875 72.8125 C-45.78715032 76.06233135 -45.78715032 76.06233135 -43.875 78.8125 C-42.20882885 78.85313832 -40.54111905 78.855221 -38.875 78.8125 C-38.545 78.1525 -38.215 77.4925 -37.875 76.8125 C-36.86308594 76.8846875 -35.85117187 76.956875 -34.80859375 77.03125 C-30.27223703 76.77897991 -27.84715703 75.56962159 -23.9375 73.3125 C-22.22240234 72.33796875 -22.22240234 72.33796875 -20.47265625 71.34375 C-19.61542969 70.8384375 -18.75820313 70.333125 -17.875 69.8125 C-17.875 69.1525 -17.875 68.4925 -17.875 67.8125 C-17.09125 67.565 -16.3075 67.3175 -15.5 67.0625 C-12.43860186 65.60469136 -12.28793481 64.73256527 -10.875 61.8125 C-8.75 61.0625 -8.75 61.0625 -6.875 60.8125 C-6.545 59.4925 -6.215 58.1725 -5.875 56.8125 C-5.318125 56.77125 -4.76125 56.73 -4.1875 56.6875 C-0.580605 55.32272892 0.85538496 52.90169824 3.125 49.8125 C3.125 49.1525 3.125 48.4925 3.125 47.8125 C3.785 47.8125 4.445 47.8125 5.125 47.8125 C8.3218339 42.59503325 8.3218339 42.59503325 10.125 36.8125 C10.455 36.1525 10.785 35.4925 11.125 34.8125 C10.10163914 31.17431306 10.10163914 31.17431306 8.125 27.8125 C4.96007879 26.59522261 2.55739268 26.8125 -0.875 26.8125 Z M-35.875 120.8125 C-34.875 122.8125 -34.875 122.8125 -34.875 122.8125 Z " fill="#A2E875" transform="translate(1032.875,73.1875)"/>
<path d="M0 0 C1.65 0 3.3 0 5 0 C5 0.33 5 0.66 5 1 C5.86802246 1.01981934 6.73604492 1.03963867 7.63037109 1.06005859 C10.84726267 1.13809872 14.06377045 1.22478881 17.28027344 1.31738281 C18.67308572 1.35569327 20.06599765 1.39054259 21.45898438 1.421875 C23.45986308 1.46747907 25.46042146 1.52651623 27.4609375 1.5859375 C29.26763916 1.63306885 29.26763916 1.63306885 31.11083984 1.68115234 C34 2 34 2 36 4 C35.34 4 34.68 4 34 4 C34 6.97 34 9.94 34 13 C33.01 13 32.02 13 31 13 C30.814375 14.794375 30.814375 14.794375 30.625 16.625 C29.90960281 23.10504702 28.94499285 29.5501944 28 36 C29.485 36.495 29.485 36.495 31 37 C29.68 37 28.36 37 27 37 C24.75571595 62.64213906 24.54172667 87.37119295 27 113 C27.66 113 28.32 113 29 113 C30.125 118.625 30.125 118.625 29 122 C29.65035814 123.34136367 30.3162955 124.67532254 31 126 C30.67 126.66 30.34 127.32 30 128 C30.32046309 130.45393363 30.32046309 130.45393363 30.9375 133.125 C31.13214844 134.03507813 31.32679687 134.94515625 31.52734375 135.8828125 C31.68332031 136.58148438 31.83929687 137.28015625 32 138 C32.99 138.33 33.98 138.66 35 139 C34.34 139.33 33.68 139.66 33 140 C34.485 141.98 34.485 141.98 36 144 C33.10947354 146.89052646 30.0985723 146.37313204 26.21875 146.44921875 C25.44946167 146.47095657 24.68017334 146.4926944 23.88757324 146.51509094 C22.26029049 146.55902444 20.63287401 146.59822057 19.00537109 146.63305664 C16.50965636 146.68729016 14.01477203 146.75747051 11.51953125 146.83007812 C9.94012821 146.8707366 8.36070132 146.91048096 6.78125 146.94921875 C5.65777161 146.98036018 5.65777161 146.98036018 4.51159668 147.01213074 C-0.76821977 147.11589012 -0.76821977 147.11589012 -3 146 C-2.52229477 144.06213915 -2.04278429 142.12472326 -1.5625 140.1875 C-1.29566406 139.10855469 -1.02882813 138.02960938 -0.75390625 136.91796875 C-0.23922588 134.9259157 0.34937175 132.95188476 1 131 C0.34 131 -0.32 131 -1 131 C-1.0928125 132.3303125 -1.0928125 132.3303125 -1.1875 133.6875 C-2.64181436 139.61662777 -7.53453104 142.54021203 -12.25390625 145.984375 C-15.48399996 147.86317671 -18.64511951 148.12396343 -22.328125 148.09765625 C-23.12734375 148.09443359 -23.9265625 148.09121094 -24.75 148.08789062 C-25.575 148.07951172 -26.4 148.07113281 -27.25 148.0625 C-28.09046875 148.05798828 -28.9309375 148.05347656 -29.796875 148.04882812 C-31.86461401 148.03707961 -33.93231624 148.01914522 -36 148 C-36 146.68 -36 145.36 -36 144 C-36.99 143.67 -37.98 143.34 -39 143 C-42.34562942 138.79651688 -44.85717361 134.56893035 -47.10546875 129.69921875 C-47.99328563 127.80917522 -47.99328563 127.80917522 -50 126 C-49.34 126 -48.68 126 -48 126 C-48 125.34 -48 124.68 -48 124 C-48.66 124 -49.32 124 -50 124 C-50.2165625 122.39125 -50.2165625 122.39125 -50.4375 120.75 C-50.89310952 117.27994768 -50.89310952 117.27994768 -51.5 115.046875 C-55.02109712 100.63238366 -53.49565216 83.63602468 -52 69 C-51.34 69 -50.68 69 -50 69 C-50.06316406 68.29230469 -50.12632813 67.58460937 -50.19140625 66.85546875 C-49.95369374 63.30918622 -48.75494696 61.34709822 -46.9375 58.3125 C-45.23402073 55.53846292 -45.23402073 55.53846292 -44 53 C-44.33 52.34 -44.66 51.68 -45 51 C-44.01 50.34 -43.02 49.68 -42 49 C-41.34 48.34 -40.68 47.68 -40 47 C-39.01 47 -38.02 47 -37 47 C-37 46.34 -37 45.68 -37 45 C-31.70515055 40.26843241 -27.30963798 39.51928917 -20.4375 39.5 C-19.71763916 39.49403809 -18.99777832 39.48807617 -18.25610352 39.48193359 C-11.03390941 39.64875843 -5.32166915 41.96598864 0 47 C1.39355764 48.95851344 2.74282547 50.95127113 4 53 C4 48.83133026 3.74460743 44.66400866 3.5625 40.5 C3.52318359 39.54351562 3.48386719 38.58703125 3.44335938 37.6015625 C3.20055105 32.08794576 2.81521535 26.62279265 2.20507812 21.13720703 C1.94420185 18.41850355 1.92819167 15.72871664 2 13 C1.34 12.67 0.68 12.34 0 12 C0 11.34 0 10.68 0 10 C0.66 10 1.32 10 2 10 C2 8.02 2 6.04 2 4 C1.34 3.67 0.68 3.34 0 3 C0 2.01 0 1.02 0 0 Z M6 67 C5.34 67.66 4.68 68.32 4 69 C4.495 69.99 4.495 69.99 5 71 C4.34 71 3.68 71 3 71 C3 70.34 3 69.68 3 69 C0.03 69.99 -2.94 70.98 -6 72 C-5.505 73.98 -5.505 73.98 -5 76 C-5.99 76 -6.98 76 -8 76 C-7.67 75.34 -7.34 74.68 -7 74 C-10.26954202 74.56371414 -11.82575883 75.49962266 -14 78 C-13.01 78 -12.02 78 -11 78 C-11 78.66 -11 79.32 -11 80 C-13.97 79.505 -13.97 79.505 -17 79 C-17.33 79.99 -17.66 80.98 -18 82 C-18.99 82 -19.98 82 -21 82 C-21.33 82.99 -21.66 83.98 -22 85 C-21.67 85.66 -21.34 86.32 -21 87 C-21.8971875 86.690625 -21.8971875 86.690625 -22.8125 86.375 C-25.28450846 85.69328085 -25.28450846 85.69328085 -28 88 C-28.66 88.99 -29.32 89.98 -30 91 C-31.13588188 92.25904979 -32.28269973 93.50827928 -33.4375 94.75 C-36.64166917 98.35967606 -38.32456233 101.50277257 -40 106 C-40.66 106.99 -41.32 107.98 -42 109 C-42.31943205 112.51375259 -42.33474496 115.1296631 -41.0625 118.4375 C-38.39129989 120.46113645 -36.13157095 120.72644682 -32.8203125 120.58984375 C-29.14673238 119.82154652 -25.91176925 118.39302963 -22.5625 116.75 C-21.94721436 116.45053467 -21.33192871 116.15106934 -20.69799805 115.8425293 C-17.30246738 114.06288425 -15.23849982 112.70729748 -14 109 C-13.34 109.33 -12.68 109.66 -12 110 C-10.82780457 109.21654285 -9.66236332 108.42297164 -8.5 107.625 C-7.8503125 107.18414062 -7.200625 106.74328125 -6.53125 106.2890625 C-6.0259375 105.86367187 -5.520625 105.43828125 -5 105 C-5 104.34 -5 103.68 -5 103 C-3.02 102.505 -3.02 102.505 -1 102 C-1 101.34 -1 100.68 -1 100 C-0.34 100 0.32 100 1 100 C2.66666667 98.66666667 2.66666667 98.66666667 4 97 C4 96.34 4 95.68 4 95 C4.66 95 5.32 95 6 95 C9.08284263 91.12963993 11.53198701 86.99213851 12 82 C12.66 82 13.32 82 14 82 C15.20272819 79.59454362 15.10071472 78.05003047 15.0625 75.375 C15.05347656 74.55773437 15.04445313 73.74046875 15.03515625 72.8984375 C15.02355469 72.27195312 15.01195312 71.64546875 15 71 C13.68 70.34 12.36 69.68 11 69 C11 69.66 11 70.32 11 71 C10.34 71 9.68 71 9 71 C9.33 69.68 9.66 68.36 10 67 C8.68 67 7.36 67 6 67 Z M1 126 C2 128 2 128 2 128 Z " fill="#A2E874" transform="translate(1184,32)"/>
<path d="M0 0 C2.03239177 -0.00975119 4.06379052 -0.04082406 6.09594727 -0.07226562 C7.37663086 -0.07742187 8.65731445 -0.08257812 9.97680664 -0.08789062 C11.15057861 -0.09723633 12.32435059 -0.10658203 13.53369141 -0.11621094 C16.47290039 0.24023438 16.47290039 0.24023438 18.27734375 1.53808594 C20.16644346 4.22765162 21.25704634 7.20059924 22.47290039 10.24023438 C22.96790039 11.23023437 22.96790039 11.23023437 23.47290039 12.24023438 C23.99106914 16.22565573 24.22640572 20.22995565 24.47290039 24.24023438 C24.57344727 25.72136719 24.57344727 25.72136719 24.67602539 27.23242188 C24.99263737 35.39648784 22.95955848 38.90287746 18.09790039 45.42773438 C15.42218648 48.29457071 12.86194127 50.28212187 9.47290039 52.24023438 C8.81290039 52.24023438 8.15290039 52.24023438 7.47290039 52.24023438 C7.14290039 53.56023437 6.81290039 54.88023438 6.47290039 56.24023438 C-0.23872899 57.12044806 -6.76115942 57.35405393 -13.52709961 57.24023438 C-13.52709961 56.58023438 -13.52709961 55.92023438 -13.52709961 55.24023438 C-14.51709961 54.91023438 -15.50709961 54.58023438 -16.52709961 54.24023438 C-13.97641115 51.88575272 -12.81692603 51.25695513 -9.27709961 51.05273438 C-7.91584961 51.14554688 -7.91584961 51.14554688 -6.52709961 51.24023438 C-7.02209961 49.26023437 -7.02209961 49.26023437 -7.52709961 47.24023438 C-6.20709961 47.24023438 -4.88709961 47.24023438 -3.52709961 47.24023438 C-3.52709961 47.90023437 -3.52709961 48.56023437 -3.52709961 49.24023438 C-3.19709961 49.24023438 -2.86709961 49.24023438 -2.52709961 49.24023438 C-1.86709961 48.25023437 -1.20709961 47.26023438 -0.52709961 46.24023438 C0.37008789 46.51867187 0.37008789 46.51867187 1.28540039 46.80273438 C3.63698801 47.46117125 3.63698801 47.46117125 6.47290039 46.24023438 C5.81290039 44.92023438 5.15290039 43.60023437 4.47290039 42.24023438 C5.02977539 42.50835937 5.58665039 42.77648437 6.16040039 43.05273438 C8.72341615 43.52409971 8.72341615 43.52409971 11.09790039 41.17773438 C13.84513552 37.7798383 15.47290039 34.67762709 15.47290039 30.24023438 C7.40369853 31.28595299 0.72268709 33.56626123 -6.52709961 37.24023438 C-6.52709961 38.23023438 -6.52709961 39.22023437 -6.52709961 40.24023438 C-8.32147461 40.82804687 -8.32147461 40.82804687 -10.15209961 41.42773438 C-14.42981908 43.00533305 -17.12955747 45.24716153 -20.52709961 48.24023438 C-21.18709961 48.24023438 -21.84709961 48.24023438 -22.52709961 48.24023438 C-22.52709961 48.90023437 -22.52709961 49.56023437 -22.52709961 50.24023438 C-23.18709961 50.24023438 -23.84709961 50.24023438 -24.52709961 50.24023438 C-24.77459961 50.77648437 -25.02209961 51.31273437 -25.27709961 51.86523438 C-26.82406936 54.8044769 -28.6572433 57.49777845 -30.52709961 60.24023438 C-29.53709961 60.24023438 -28.54709961 60.24023438 -27.52709961 60.24023438 C-27.52709961 60.90023437 -27.52709961 61.56023437 -27.52709961 62.24023438 C-29.17709961 62.24023438 -30.82709961 62.24023438 -32.52709961 62.24023438 C-33.51709961 64.71523437 -33.51709961 64.71523437 -34.52709961 67.24023438 C-33.86709961 67.24023438 -33.20709961 67.24023438 -32.52709961 67.24023438 C-32.52709961 67.90023437 -32.52709961 68.56023437 -32.52709961 69.24023438 C-33.51709961 69.24023438 -34.50709961 69.24023438 -35.52709961 69.24023438 C-35.52709961 71.22023438 -35.52709961 73.20023437 -35.52709961 75.24023438 C-34.86709961 75.57023437 -34.20709961 75.90023437 -33.52709961 76.24023438 C-33.19709961 77.23023438 -32.86709961 78.22023438 -32.52709961 79.24023438 C-27.35102963 81.76190949 -22.14151585 81.43995669 -16.52709961 81.24023438 C-16.52709961 80.58023438 -16.52709961 79.92023438 -16.52709961 79.24023438 C-15.53709961 79.24023438 -14.54709961 79.24023438 -13.52709961 79.24023438 C-13.52709961 79.90023437 -13.52709961 80.56023437 -13.52709961 81.24023438 C-12.74334961 80.95148438 -11.95959961 80.66273438 -11.15209961 80.36523438 C-7.34528797 79.18381007 -3.63768743 78.55901506 0.30102539 77.99804688 C2.65380961 77.43099805 2.65380961 77.43099805 3.76977539 75.16992188 C4.00180664 74.533125 4.23383789 73.89632812 4.47290039 73.24023438 C5.46290039 73.24023438 6.45290039 73.24023438 7.47290039 73.24023438 C7.80290039 73.90023437 8.13290039 74.56023437 8.47290039 75.24023438 C9.56602539 74.74523437 10.65915039 74.25023437 11.78540039 73.74023438 C15.47290039 72.24023438 15.47290039 72.24023438 18.47290039 72.24023438 C18.96790039 70.75523437 18.96790039 70.75523437 19.47290039 69.24023438 C20.46290039 69.24023438 21.45290039 69.24023438 22.47290039 69.24023438 C22.80290039 68.58023438 23.13290039 67.92023438 23.47290039 67.24023438 C24.46290039 67.24023438 25.45290039 67.24023438 26.47290039 67.24023438 C26.47290039 79.45023438 26.47290039 91.66023438 26.47290039 104.24023438 C27.13290039 104.57023437 27.79290039 104.90023437 28.47290039 105.24023438 C27.85415039 105.36398438 27.23540039 105.48773438 26.59790039 105.61523438 C24.28169207 106.11220794 24.28169207 106.11220794 22.47290039 108.24023438 C21.48290039 108.24023438 20.49290039 108.24023438 19.47290039 108.24023438 C17.64875588 108.25711378 15.82461197 108.27406394 14.00047302 108.29153442 C10.94370735 108.31809924 7.88691722 108.33449039 4.83007812 108.35009766 C3.215143 108.36020017 1.60022634 108.37388015 -0.01464844 108.39111328 C-2.34306311 108.41530091 -4.67123877 108.42669865 -6.99975586 108.43554688 C-7.72373062 108.44586945 -8.44770538 108.45619202 -9.19361877 108.46682739 C-10.97304942 108.46722807 -12.75186448 108.36235648 -14.52709961 108.24023438 C-15.51709961 107.25023437 -15.51709961 107.25023437 -16.52709961 106.24023438 C-19.14553431 104.05820546 -21.1572898 102.84198613 -24.52709961 102.24023438 C-24.52709961 101.58023438 -24.52709961 100.92023438 -24.52709961 100.24023438 C-25.26959961 99.95148438 -26.01209961 99.66273438 -26.77709961 99.36523438 C-31.69103404 97.35498847 -31.69103404 97.35498847 -33.52709961 96.24023438 C-33.85709961 95.25023437 -34.18709961 94.26023437 -34.52709961 93.24023438 C-35.51709961 92.91023438 -36.50709961 92.58023438 -37.52709961 92.24023438 C-38.02209961 89.27023438 -38.02209961 89.27023438 -38.52709961 86.24023438 C-39.18709961 86.24023438 -39.84709961 86.24023438 -40.52709961 86.24023438 C-47.06558136 70.76749129 -49.19694635 55.92677648 -46.52709961 39.24023438 C-47.51709961 39.24023438 -48.50709961 39.24023438 -49.52709961 39.24023438 C-49.52709961 38.25023437 -49.52709961 37.26023438 -49.52709961 36.24023438 C-48.20709961 36.24023438 -46.88709961 36.24023438 -45.52709961 36.24023438 C-45.52709961 35.58023438 -45.52709961 34.92023438 -45.52709961 34.24023438 C-46.18709961 34.24023438 -46.84709961 34.24023438 -47.52709961 34.24023438 C-47.19709961 33.25023437 -46.86709961 32.26023438 -46.52709961 31.24023438 C-45.53709961 30.91023438 -44.54709961 30.58023438 -43.52709961 30.24023438 C-43.19709961 27.93023437 -42.86709961 25.62023437 -42.52709961 23.24023438 C-41.53709961 23.24023438 -40.54709961 23.24023438 -39.52709961 23.24023438 C-39.15584961 22.18835938 -39.15584961 22.18835938 -38.77709961 21.11523438 C-37.35529723 17.8450889 -35.65463673 15.09911238 -33.52709961 12.24023438 C-32.86709961 12.24023438 -32.20709961 12.24023438 -31.52709961 12.24023438 C-31.52709961 9.93023437 -31.52709961 7.62023437 -31.52709961 5.24023438 C-30.64022461 5.46710938 -29.75334961 5.69398437 -28.83959961 5.92773438 C-24.89375002 6.29998434 -23.72909 5.4037414 -20.52709961 3.24023438 C-19.53709961 3.24023438 -18.54709961 3.24023438 -17.52709961 3.24023438 C-17.19709961 2.58023438 -16.86709961 1.92023438 -16.52709961 1.24023438 C-11.38520485 -0.66998219 -5.39660622 0.01570493 0 0 Z " fill="#A1E874" transform="translate(1103.527099609375,71.759765625)"/>
<path d="M0 0 C1.04542969 -0.01224609 2.09085938 -0.02449219 3.16796875 -0.03710938 C13.97658664 -0.05760612 13.97658664 -0.05760612 18.875 2.1875 C22.78872561 8.52974252 23.58913208 16.84641175 23.875 24.1875 C23.93816406 25.11820313 24.00132812 26.04890625 24.06640625 27.0078125 C24.46143707 36.3611228 21.05295934 41.40681292 14.875 48.1875 C13.25167033 49.57326923 11.58775535 50.91391268 9.875 52.1875 C9.2975 52.72375 8.72 53.26 8.125 53.8125 C1.4760262 57.87576177 -6.59636749 57.44079979 -14.125 57.1875 C-14.125 56.1975 -14.125 55.2075 -14.125 54.1875 C-15.115 53.6925 -15.115 53.6925 -16.125 53.1875 C-12.90470643 51.04063762 -10.80986189 50.9125317 -7.04296875 50.53515625 C-4.50113489 50.07441651 -3.11867119 48.78243695 -1.125 47.1875 C2.125 46.5 2.125 46.5 4.875 46.1875 C4.875 44.8675 4.875 43.5475 4.875 42.1875 C5.6175 42.290625 6.36 42.39375 7.125 42.5 C10.05215174 42.445988 10.05215174 42.445988 12.125 40.0625 C13.99109306 36.99677569 14.54509575 34.73397066 14.875 31.1875 C11.28615242 29.99121747 9.95091357 30.51471887 6.375 31.5625 C4.93640625 31.97628906 4.93640625 31.97628906 3.46875 32.3984375 C1.59586965 32.96819929 -0.26783055 33.56844352 -2.125 34.1875 C-2.62 35.1775 -2.62 35.1775 -3.125 36.1875 C-5.6875 36.8125 -5.6875 36.8125 -8.125 37.1875 C-8.125 38.5075 -8.125 39.8275 -8.125 41.1875 C-11.125 42.1875 -11.125 42.1875 -14.125 42.1875 C-14.455 43.1775 -14.785 44.1675 -15.125 45.1875 C-15.82625 45.435 -16.5275 45.6825 -17.25 45.9375 C-23.95805663 48.85404636 -27.89894879 54.86443962 -31.125 61.1875 C-31.785 61.1875 -32.445 61.1875 -33.125 61.1875 C-33.455 63.8275 -33.785 66.4675 -34.125 69.1875 C-34.785 69.1875 -35.445 69.1875 -36.125 69.1875 C-35.465 71.8275 -34.805 74.4675 -34.125 77.1875 C-33.135 77.1875 -32.145 77.1875 -31.125 77.1875 C-31.125 77.8475 -31.125 78.5075 -31.125 79.1875 C-29.64 79.6825 -29.64 79.6825 -28.125 80.1875 C-27.63 80.6825 -27.63 80.6825 -27.125 81.1875 C-20.54596926 81.55300171 -14.56039075 80.46235353 -8.125 79.1875 C-5.29496355 78.70405093 -2.46455317 78.2233656 0.3671875 77.75 C3.01774586 77.15548224 5.38307527 76.25929558 7.875 75.1875 C6.885 74.6925 6.885 74.6925 5.875 74.1875 C5.875 73.5275 5.875 72.8675 5.875 72.1875 C7.525 72.1875 9.175 72.1875 10.875 72.1875 C10.875 72.8475 10.875 73.5075 10.875 74.1875 C12.89545442 73.58566251 14.89611039 72.91443904 16.875 72.1875 C17.205 71.5275 17.535 70.8675 17.875 70.1875 C20.9375 69.5625 20.9375 69.5625 23.875 69.1875 C23.875 68.5275 23.875 67.8675 23.875 67.1875 C24.535 67.1875 25.195 67.1875 25.875 67.1875 C25.9491205 72.54432133 26.00358776 77.90084462 26.03979492 83.25805664 C26.0548876 85.08070067 26.07536395 86.90330836 26.10131836 88.72583008 C26.13768103 91.344655 26.15472124 93.96300007 26.16796875 96.58203125 C26.18345261 97.39775101 26.19893646 98.21347076 26.21488953 99.0539093 C26.21659013 104.76199339 26.21659013 104.76199339 24.47871399 106.92680359 C22.875 108.1875 22.875 108.1875 20.875 108.1875 C20.875 107.5275 20.875 106.8675 20.875 106.1875 C19.885 106.1875 18.895 106.1875 17.875 106.1875 C17.545 106.8475 17.215 107.5075 16.875 108.1875 C12.79989562 108.2122345 8.72482036 108.23037637 4.6496582 108.24243164 C3.26358275 108.24745777 1.87751259 108.25427966 0.49145508 108.26293945 C-1.50176715 108.27508018 -3.49502819 108.28021021 -5.48828125 108.28515625 C-6.68751221 108.29039307 -7.88674316 108.29562988 -9.12231445 108.30102539 C-12.125 108.1875 -12.125 108.1875 -15.125 107.1875 C-15.125 106.5275 -15.125 105.8675 -15.125 105.1875 C-18.94820557 103.76491188 -22.03781305 102.94707724 -26.125 103.1875 C-26.125 102.5275 -26.125 101.8675 -26.125 101.1875 C-26.785 101.1875 -27.445 101.1875 -28.125 101.1875 C-28.455 100.1975 -28.785 99.2075 -29.125 98.1875 C-32.01297217 95.61343785 -34.90624924 93.33333384 -38.125 91.1875 C-39.3125 87.5625 -39.3125 87.5625 -40.125 84.1875 C-40.785 84.1875 -41.445 84.1875 -42.125 84.1875 C-42.125 83.1975 -42.125 82.2075 -42.125 81.1875 C-42.785 81.1875 -43.445 81.1875 -44.125 81.1875 C-44.125 80.1975 -44.125 79.2075 -44.125 78.1875 C-44.785 78.1875 -45.445 78.1875 -46.125 78.1875 C-45.795 77.1975 -45.465 76.2075 -45.125 75.1875 C-45.62492971 73.33818376 -46.12515158 71.48894593 -46.62695312 69.64013672 C-47.62363132 64.73198518 -47.41056923 59.7385844 -47.375 54.75 C-47.38273438 53.66912109 -47.39046875 52.58824219 -47.3984375 51.47460938 C-47.38289038 45.06531052 -46.76730215 39.38523548 -45.125 33.1875 C-45.785 32.8575 -46.445 32.5275 -47.125 32.1875 C-45.805 31.8575 -44.485 31.5275 -43.125 31.1875 C-43.228125 29.970625 -43.33125 28.75375 -43.4375 27.5 C-43.42559321 24.10061169 -43.32735217 23.43277536 -41.0625 20.6875 C-39.6084375 19.45 -39.6084375 19.45 -38.125 18.1875 C-36.87409886 16.85338441 -35.64590385 15.49772655 -34.4375 14.125 C-33.85613281 13.47402344 -33.27476562 12.82304688 -32.67578125 12.15234375 C-31.0497515 10.25481554 -31.0497515 10.25481554 -30.140625 8.0078125 C-29.125 6.1875 -29.125 6.1875 -25.5625 5.125 C-24.428125 4.815625 -23.29375 4.50625 -22.125 4.1875 C-21.795 3.1975 -21.465 2.2075 -21.125 1.1875 C-14.05640165 0.26518811 -7.12505752 0.0044255 0 0 Z " fill="#A1E874" transform="translate(566.125,71.8125)"/>
<path d="M0 0 C0.680625 -0.01224609 1.36125 -0.02449219 2.0625 -0.03710938 C3.83490756 -0.04236355 5.6067994 0.06534094 7.375 0.1875 C9.375 2.1875 9.375 2.1875 9.60205078 5.35205078 C9.60173389 6.69567963 9.59042181 8.0393341 9.5703125 9.3828125 C9.5674826 10.09025604 9.56465271 10.79769958 9.56173706 11.52658081 C9.55053137 13.7887251 9.52542679 16.05047515 9.5 18.3125 C9.48997067 19.84504637 9.48084474 21.37759894 9.47265625 22.91015625 C9.45059086 26.66942301 9.41605896 30.42839464 9.375 34.1875 C8.715 34.1875 8.055 34.1875 7.375 34.1875 C7.375 34.8475 7.375 35.5075 7.375 36.1875 C6.715 36.1875 6.055 36.1875 5.375 36.1875 C5.375 35.1975 5.375 34.2075 5.375 33.1875 C0.425 33.6825 0.425 33.6825 -4.625 34.1875 C-4.625 34.8475 -4.625 35.5075 -4.625 36.1875 C-5.615 36.5175 -6.605 36.8475 -7.625 37.1875 C-8.285 38.1775 -8.945 39.1675 -9.625 40.1875 C-10.924375 40.9609375 -10.924375 40.9609375 -12.25 41.75 C-13.03375 42.224375 -13.8175 42.69875 -14.625 43.1875 C-14.625 43.8475 -14.625 44.5075 -14.625 45.1875 C-15.285 45.8475 -15.945 46.5075 -16.625 47.1875 C-16.955 48.1775 -17.285 49.1675 -17.625 50.1875 C-18.615 50.8475 -19.605 51.5075 -20.625 52.1875 C-25.76320772 63.40471403 -26.7891631 74.99442337 -25.625 87.1875 C-24.965 88.1775 -24.305 89.1675 -23.625 90.1875 C-22.9921875 92.7109375 -22.9921875 92.7109375 -22.5 95.5625 C-22.33242188 96.49835938 -22.16484375 97.43421875 -21.9921875 98.3984375 C-21.64083573 101.06721581 -21.4128266 103.50304519 -21.625 106.1875 C-22.615 107.1775 -22.615 107.1775 -23.625 108.1875 C-24.945 108.1875 -26.265 108.1875 -27.625 108.1875 C-27.625 107.5275 -27.625 106.8675 -27.625 106.1875 C-34.555 106.1875 -41.485 106.1875 -48.625 106.1875 C-48.625 106.8475 -48.625 107.5075 -48.625 108.1875 C-49.615 108.1875 -50.605 108.1875 -51.625 108.1875 C-51.625 107.5275 -51.625 106.8675 -51.625 106.1875 C-52.285 106.1875 -52.945 106.1875 -53.625 106.1875 C-53.480625 105.1975 -53.33625 104.2075 -53.1875 103.1875 C-52.61574821 99.19340535 -52.11680166 95.19217063 -51.625 91.1875 C-50.965 91.1875 -50.305 91.1875 -49.625 91.1875 C-49.57601562 90.15109375 -49.52703125 89.1146875 -49.4765625 88.046875 C-49.40150403 86.67705792 -49.32595753 85.30726752 -49.25 83.9375 C-49.2190625 83.25558594 -49.188125 82.57367188 -49.15625 81.87109375 C-48.94240626 78.20010962 -48.61422945 75.32498384 -46.625 72.1875 C-47.285 72.1875 -47.945 72.1875 -48.625 72.1875 C-48.625 71.1975 -48.625 70.2075 -48.625 69.1875 C-47.635 69.1875 -46.645 69.1875 -45.625 69.1875 C-45.625 59.6175 -45.625 50.0475 -45.625 40.1875 C-46.285 40.1875 -46.945 40.1875 -47.625 40.1875 C-48.12 38.7025 -48.12 38.7025 -48.625 37.1875 C-47.965 36.5275 -47.305 35.8675 -46.625 35.1875 C-46.98755135 30.76437349 -47.73404191 26.53092069 -48.625 22.1875 C-48.96903308 19.85572025 -49.30449202 17.52262959 -49.625 15.1875 C-50.615 15.1875 -51.605 15.1875 -52.625 15.1875 C-52.295 13.8675 -51.965 12.5475 -51.625 11.1875 C-52.285 8.2175 -52.945 5.2475 -53.625 2.1875 C-42.735 2.1875 -31.845 2.1875 -20.625 2.1875 C-20.625 3.5075 -20.625 4.8275 -20.625 6.1875 C-16.52039685 6.65290009 -16.52039685 6.65290009 -14.125 3.75 C-13.3 2.904375 -12.475 2.05875 -11.625 1.1875 C-7.91646399 -0.24416739 -3.92228294 0.00375698 0 0 Z M-20.625 8.1875 C-21.92133621 9.25395115 -21.92133621 9.25395115 -21.6875 11.75 C-21.666875 12.554375 -21.64625 13.35875 -21.625 14.1875 C-19.28212582 11.51502366 -19.28212582 11.51502366 -18.625 8.1875 C-19.285 8.1875 -19.945 8.1875 -20.625 8.1875 Z " fill="#A2E874" transform="translate(647.625,71.8125)"/>
<path d="M0 0 C1.32 0.33 2.64 0.66 4 1 C3.34 1.66 2.68 2.32 2 3 C2 2.34 2 1.68 2 1 C1.34 0.67 0.68 0.34 0 0 Z M-3 4 C-2.01 4.66 -1.02 5.32 0 6 C-1.65 7.32 -3.3 8.64 -5 10 C-5 8.35 -5 6.7 -5 5 C-4.34 4.67 -3.68 4.34 -3 4 Z " fill="#81E251" transform="translate(882,74)"/>
<path d="M0 0 C2.475 0.99 2.475 0.99 5 2 C3.35 3.65 1.7 5.3 0 7 C0 4.69 0 2.38 0 0 Z M-2 7 C-1.01 7.495 -1.01 7.495 0 8 C-0.99 8.495 -0.99 8.495 -2 9 C-2 8.34 -2 7.68 -2 7 Z " fill="#A1DE62" transform="translate(1072,77)"/>
<path d="M0 0 C1.65 0 3.3 0 5 0 C5 0.66 5 1.32 5 2 C3.35 2.33 1.7 2.66 0 3 C0 2.01 0 1.02 0 0 Z " fill="#9BE20E" transform="translate(1158,145)"/>
<path d="M0 0 C0.99 0 1.98 0 3 0 C3 0.99 3 1.98 3 3 C2.01 3 1.02 3 0 3 C0 2.01 0 1.02 0 0 Z " fill="#CFEFAF" transform="translate(656,154)"/>
<path d="M0 0 C1.32 0 2.64 0 4 0 C4 0.66 4 1.32 4 2 C2.68 2 1.36 2 0 2 C0 1.34 0 0.68 0 0 Z " fill="#3FFF3F" transform="translate(891,113)"/>
<path d="M0 0 C0.66 0 1.32 0 2 0 C2 1.32 2 2.64 2 4 C1.34 4 0.68 4 0 4 C0 2.68 0 1.36 0 0 Z " fill="#4FE935" transform="translate(338,72)"/>
<path d="M0 0 C1.32 0.33 2.64 0.66 4 1 C2.68 1.33 1.36 1.66 0 2 C0 1.34 0 0.68 0 0 Z " fill="#4CB645" transform="translate(590,178)"/>
<path d="M0 0 C1.32 0.33 2.64 0.66 4 1 C2.68 1.33 1.36 1.66 0 2 C0 1.34 0 0.68 0 0 Z " fill="#88E35B" transform="translate(504,78)"/>
<path d="M0 0 C0.66 0 1.32 0 2 0 C2.33 0.99 2.66 1.98 3 3 C2.01 3 1.02 3 0 3 C0 2.01 0 1.02 0 0 Z " fill="#87F25E" transform="translate(390,74)"/>
<path d="M0 0 C1.32 0.33 2.64 0.66 4 1 C2.68 1.33 1.36 1.66 0 2 C0 1.34 0 0.68 0 0 Z " fill="#76A44F" transform="translate(1036,73)"/>
<path d="M0 0 C0.99 0 1.98 0 3 0 C3 0.66 3 1.32 3 2 C2.01 2 1.02 2 0 2 C0 1.34 0 0.68 0 0 Z " fill="#55AA55" transform="translate(458,126)"/>
<path d="M0 0 C0.66 0 1.32 0 2 0 C2 0.99 2 1.98 2 3 C1.34 3 0.68 3 0 3 C0 2.01 0 1.02 0 0 Z " fill="#00AA00" transform="translate(343,94)"/>
<path d="M0 0 C0.99 0.33 1.98 0.66 3 1 C2.67 1.66 2.34 2.32 2 3 C1.34 2.01 0.68 1.02 0 0 Z " fill="#99E519" transform="translate(785,172)"/>
<path d="M0 0 C0.99 0.33 1.98 0.66 3 1 C2.01 1.33 1.02 1.66 0 2 C0 1.34 0 0.68 0 0 Z " fill="#4C9919" transform="translate(912,167)"/>
<path d="M0 0 C0.33 0.99 0.66 1.98 1 3 C0.01 2.67 -0.98 2.34 -2 2 C-1.34 2 -0.68 2 0 2 C0 1.34 0 0.68 0 0 Z " fill="#99FF00" transform="translate(799,156)"/>
<path d="M0 0 C0.99 0.33 1.98 0.66 3 1 C2.01 1.33 1.02 1.66 0 2 C0 1.34 0 0.68 0 0 Z " fill="#6BC151" transform="translate(161,21)"/>
<path d="M0 0 C0.66 0 1.32 0 2 0 C2 0.66 2 1.32 2 2 C1.34 2 0.68 2 0 2 C0 1.34 0 0.68 0 0 Z " fill="#95EF85" transform="translate(777,178)"/>
<path d="M0 0 C0.66 0 1.32 0 2 0 C2 0.66 2 1.32 2 2 C1.34 2 0.68 2 0 2 C0 1.34 0 0.68 0 0 Z " fill="#20DF20" transform="translate(343,151)"/>
<path d="M0 0 C0.66 0 1.32 0 2 0 C2 0.66 2 1.32 2 2 C1.34 2 0.68 2 0 2 C0 1.34 0 0.68 0 0 Z " fill="#00FF00" transform="translate(342,146)"/>
<path d="M0 0 C0.66 0 1.32 0 2 0 C2 0.66 2 1.32 2 2 C1.34 2 0.68 2 0 2 C0 1.34 0 0.68 0 0 Z " fill="#7FFF7F" transform="translate(1124,139)"/>
<path d="M0 0 C0.66 0 1.32 0 2 0 C2 0.66 2 1.32 2 2 C1.34 2 0.68 2 0 2 C0 1.34 0 0.68 0 0 Z " fill="#3FFF00" transform="translate(328,140)"/>
<path d="M0 0 C0.66 0 1.32 0 2 0 C2 0.66 2 1.32 2 2 C1.34 2 0.68 2 0 2 C0 1.34 0 0.68 0 0 Z " fill="#8AEF65" transform="translate(536,132)"/>
<path d="M0 0 C0.66 0 1.32 0 2 0 C2 0.66 2 1.32 2 2 C1.34 2 0.68 2 0 2 C0 1.34 0 0.68 0 0 Z " fill="#5FDF5F" transform="translate(1089,116)"/>
<path d="M0 0 C0 3 0 3 0 3 Z " fill="#5FBF20" transform="translate(690,100)"/>
<path d="M0 0 C0.66 0.66 1.32 1.32 2 2 C1.01 2.495 1.01 2.495 0 3 C0 2.01 0 1.02 0 0 Z " fill="#00BF00" transform="translate(155,98)"/>
<path d="M0 0 C0.66 0 1.32 0 2 0 C2 0.66 2 1.32 2 2 C1.34 2 0.68 2 0 2 C0 1.34 0 0.68 0 0 Z " fill="#CAE935" transform="translate(323,80)"/>
<path d="M0 0 C0.99 0.33 1.98 0.66 3 1 C2.01 1 1.02 1 0 1 C0 0.67 0 0.34 0 0 Z " fill="#3FFF00" transform="translate(927,73)"/>
<path d="M0 0 C0.99 0.33 1.98 0.66 3 1 C2.01 1 1.02 1 0 1 C0 0.67 0 0.34 0 0 Z " fill="#40EF30" transform="translate(267,42)"/>
<path d="M0 0 C0.99 0.495 0.99 0.495 2 1 C1.01 1.495 1.01 1.495 0 2 C0 1.34 0 0.68 0 0 Z " fill="#718D55" transform="translate(98,193)"/>
<path d="M0 0 C3 1 3 1 3 1 Z " fill="#55FF00" transform="translate(1216,179)"/>
<path d="M0 0 C0.33 0.66 0.66 1.32 1 2 C0.34 1.67 -0.32 1.34 -1 1 C-0.67 0.67 -0.34 0.34 0 0 Z " fill="#55FF00" transform="translate(1173,178)"/>
<path d="M0 0 C3 1 3 1 3 1 Z " fill="#00AA00" transform="translate(1129,178)"/>
<path d="M0 0 C0.99 0.495 0.99 0.495 2 1 C1.01 1.495 1.01 1.495 0 2 C0 1.34 0 0.68 0 0 Z " fill="#55FF55" transform="translate(100,163)"/>
<path d="M0 0 C0.33 0.66 0.66 1.32 1 2 C0.34 1.67 -0.32 1.34 -1 1 C-0.67 0.67 -0.34 0.34 0 0 Z " fill="#7FAA00" transform="translate(524,157)"/>
<path d="M0 0 C3 1 3 1 3 1 Z " fill="#AAFF00" transform="translate(62,158)"/>
<path d="M0 0 C0.33 0.66 0.66 1.32 1 2 C0.34 1.67 -0.32 1.34 -1 1 C-0.67 0.67 -0.34 0.34 0 0 Z " fill="#2A2A00" transform="translate(371,144)"/>
<path d="M0 0 C0.66 0.66 1.32 1.32 2 2 C1.34 2 0.68 2 0 2 C0 1.34 0 0.68 0 0 Z " fill="#55AA00" transform="translate(586,139)"/>
<path d="M0 0 C0.66 0.66 1.32 1.32 2 2 C1.34 2 0.68 2 0 2 C0 1.34 0 0.68 0 0 Z " fill="#55AA00" transform="translate(624,135)"/>
<path d="M0 0 C0.33 0.66 0.66 1.32 1 2 C0.34 1.67 -0.32 1.34 -1 1 C-0.67 0.67 -0.34 0.34 0 0 Z " fill="#55FF00" transform="translate(791,111)"/>
<path d="M0 0 C3 1 3 1 3 1 Z " fill="#005500" transform="translate(1101,107)"/>
<path d="M0 0 C0.66 0.66 1.32 1.32 2 2 C1.34 2 0.68 2 0 2 C0 1.34 0 0.68 0 0 Z " fill="#55FF55" transform="translate(146,105)"/>
<path d="M0 0 C0.66 0 1.32 0 2 0 C1.67 0.66 1.34 1.32 1 2 C0.67 1.34 0.34 0.68 0 0 Z " fill="#00AA00" transform="translate(261,100)"/>
<path d="M0 0 C0.66 0.66 1.32 1.32 2 2 C1.34 2 0.68 2 0 2 C0 1.34 0 0.68 0 0 Z " fill="#55AA00" transform="translate(747,89)"/>
<path d="M0 0 C0.66 0.66 1.32 1.32 2 2 C1.34 2 0.68 2 0 2 C0 1.34 0 0.68 0 0 Z " fill="#55FF00" transform="translate(873,83)"/>
<path d="" fill="#AAFF00" transform="translate(0,0)"/>
<path d="M0 0 C0.99 0.495 0.99 0.495 2 1 C1.01 1.495 1.01 1.495 0 2 C0 1.34 0 0.68 0 0 Z " fill="#7FAA00" transform="translate(530,82)"/>
<path d="M0 0 C0.66 0.66 1.32 1.32 2 2 C1.34 2 0.68 2 0 2 C0 1.34 0 0.68 0 0 Z " fill="#FFFF00" transform="translate(1043,78)"/>
<path d="M0 0 C0.66 0.66 1.32 1.32 2 2 C1.34 2 0.68 2 0 2 C0 1.34 0 0.68 0 0 Z " fill="#005500" transform="translate(1082,72)"/>
<path d="M0 0 C3 1 3 1 3 1 Z " fill="#2AFF00" transform="translate(498,73)"/>
<path d="M0 0 C0.66 0 1.32 0 2 0 C1.67 0.66 1.34 1.32 1 2 C0.67 1.34 0.34 0.68 0 0 Z " fill="#B8D447" transform="translate(1149,72)"/>
<path d="M0 0 C0.99 0.495 0.99 0.495 2 1 C1.01 1.495 1.01 1.495 0 2 C0 1.34 0 0.68 0 0 Z " fill="#55D455" transform="translate(212,67)"/>
<path d="M0 0 C0.99 0.495 0.99 0.495 2 1 C1.01 1.495 1.01 1.495 0 2 C0 1.34 0 0.68 0 0 Z " fill="#2A2A00" transform="translate(193,60)"/>
<path d="M0 0 C0.66 0 1.32 0 2 0 C1.67 0.66 1.34 1.32 1 2 C0.67 1.34 0.34 0.68 0 0 Z " fill="#7FFF2A" transform="translate(278,37)"/>
<path d="M0 0 C2 1 2 1 2 1 Z " fill="#40FF00" transform="translate(426,225)"/>
<path d="" fill="#00FF00" transform="translate(0,0)"/>
<path d="M0 0 C2 1 2 1 2 1 Z " fill="#5F7F40" transform="translate(152,209)"/>
<path d="M0 0 C2 1 2 1 2 1 Z " fill="#7FFF7F" transform="translate(430,202)"/>
<path d="M0 0 C2 1 2 1 2 1 Z " fill="#40FF00" transform="translate(496,179)"/>
<path d="M0 0 C2 1 2 1 2 1 Z " fill="#7FFF00" transform="translate(256,179)"/>
<path d="M0 0 C2 1 2 1 2 1 Z " fill="#00FF00" transform="translate(344,173)"/>
<path d="M0 0 C2 1 2 1 2 1 Z " fill="#00FF00" transform="translate(391,170)"/>
<path d="M0 0 C2 1 2 1 2 1 Z " fill="#007F00" transform="translate(1061,158)"/>
<path d="M0 0 C2 1 2 1 2 1 Z " fill="#007F00" transform="translate(767,150)"/>
<path d="" fill="#7F7F00" transform="translate(0,0)"/>
<path d="M0 0 C2 1 2 1 2 1 Z " fill="#00FF00" transform="translate(357,147)"/>
<path d="M0 0 C2 1 2 1 2 1 Z " fill="#7FFF00" transform="translate(208,147)"/>
<path d="" fill="#00FF00" transform="translate(0,0)"/>
<path d="" fill="#7F7F00" transform="translate(0,0)"/>
<path d="" fill="#7FFF00" transform="translate(0,0)"/>
<path d="M0 0 C2 1 2 1 2 1 Z " fill="#7F7F00" transform="translate(213,142)"/>
<path d="" fill="#40FF40" transform="translate(0,0)"/>
<path d="" fill="#7FFF7F" transform="translate(0,0)"/>
<path d="" fill="#00FF00" transform="translate(0,0)"/>
<path d="M0 0 C2 1 2 1 2 1 Z " fill="#00FF00" transform="translate(56,134)"/>
<path d="" fill="#7F7F7F" transform="translate(0,0)"/>
<path d="" fill="#00FF00" transform="translate(0,0)"/>
<path d="" fill="#FFFF7F" transform="translate(0,0)"/>
<path d="M0 0 C2 1 2 1 2 1 Z " fill="#7F7F00" transform="translate(315,132)"/>
<path d="" fill="#00FF00" transform="translate(0,0)"/>
<path d="" fill="#007F00" transform="translate(0,0)"/>
<path d="" fill="#7FFF00" transform="translate(0,0)"/>
<path d="" fill="#7F7F7F" transform="translate(0,0)"/>
<path d="" fill="#FFFF00" transform="translate(0,0)"/>
<path d="" fill="#00FF00" transform="translate(0,0)"/>
<path d="" fill="#7F7F7F" transform="translate(0,0)"/>
<path d="M0 0 C2 1 2 1 2 1 Z " fill="#7F7F00" transform="translate(517,109)"/>
<path d="" fill="#BFBF80" transform="translate(0,0)"/>
<path d="" fill="#FFFF7F" transform="translate(0,0)"/>
<path d="M0 0 C2 1 2 1 2 1 Z " fill="#00FF00" transform="translate(343,90)"/>
<path d="" fill="#2AFF2A" transform="translate(0,0)"/>
<path d="" fill="#7F7F7F" transform="translate(0,0)"/>
<path d="" fill="#00FF00" transform="translate(0,0)"/>
<path d="M0 0 C2 1 2 1 2 1 Z " fill="#FFFF00" transform="translate(337,85)"/>
<path d="M0 0 C2 1 2 1 2 1 Z " fill="#00FF00" transform="translate(528,84)"/>
<path d="M0 0 C2 1 2 1 2 1 Z " fill="#FFFF00" transform="translate(708,80)"/>
<path d="M0 0 C2 1 2 1 2 1 Z " fill="#00FF00" transform="translate(338,77)"/>
<path d="M0 0 C2 1 2 1 2 1 Z " fill="#BFFF00" transform="translate(631,75)"/>
<path d="M0 0 C2 1 2 1 2 1 Z " fill="#7FFF00" transform="translate(386,73)"/>
<path d="M0 0 C2 1 2 1 2 1 Z " fill="#007F00" transform="translate(1177,72)"/>
<path d="M0 0 C2 1 2 1 2 1 Z " fill="#7FFF00" transform="translate(999,72)"/>
<path d="M0 0 C2 1 2 1 2 1 Z " fill="#7FFF7F" transform="translate(597,72)"/>
<path d="M0 0 C2 1 2 1 2 1 Z " fill="#40BF00" transform="translate(263,46)"/>
<path d="M0 0 C2 1 2 1 2 1 Z " fill="#00FF00" transform="translate(725,42)"/>
<path d="" fill="#40FF00" transform="translate(0,0)"/>
<path d="M0 0 C2 1 2 1 2 1 Z " fill="#7F7F40" transform="translate(656,36)"/>
<path d="" fill="#007F00" transform="translate(0,0)"/>
<path d="" fill="#000000" transform="translate(0,0)"/>
<path d="" fill="#00FF00" transform="translate(0,0)"/>
<path d="" fill="#FFFF00" transform="translate(0,0)"/>
<path d="" fill="#000000" transform="translate(0,0)"/>
<path d="" fill="#00FF00" transform="translate(0,0)"/>
<path d="" fill="#00FF00" transform="translate(0,0)"/>
<path d="" fill="#00FF00" transform="translate(0,0)"/>
<path d="" fill="#00FF00" transform="translate(0,0)"/>
<path d="" fill="#000000" transform="translate(0,0)"/>
<path d="" fill="#00FF00" transform="translate(0,0)"/>
<path d="" fill="#000000" transform="translate(0,0)"/>
<path d="" fill="#000000" transform="translate(0,0)"/>
<path d="" fill="#00FF00" transform="translate(0,0)"/>
<path d="" fill="#000000" transform="translate(0,0)"/>
<path d="" fill="#00FF00" transform="translate(0,0)"/>
<path d="" fill="#00FF00" transform="translate(0,0)"/>
<path d="" fill="#000000" transform="translate(0,0)"/>
<path d="" fill="#00FF00" transform="translate(0,0)"/>
<path d="" fill="#000000" transform="translate(0,0)"/>
<path d="" fill="#000000" transform="translate(0,0)"/>
<path d="" fill="#00FF00" transform="translate(0,0)"/>
<path d="" fill="#000000" transform="translate(0,0)"/>
<path d="" fill="#FFFF00" transform="translate(0,0)"/>
<path d="" fill="#FFFF00" transform="translate(0,0)"/>
<path d="" fill="#00FF00" transform="translate(0,0)"/>
<path d="" fill="#FFFF00" transform="translate(0,0)"/>
<path d="" fill="#000000" transform="translate(0,0)"/>
<path d="" fill="#00FF00" transform="translate(0,0)"/>
<path d="" fill="#00FF00" transform="translate(0,0)"/>
<path d="" fill="#000000" transform="translate(0,0)"/>
<path d="" fill="#FFFF00" transform="translate(0,0)"/>
<path d="" fill="#00FF00" transform="translate(0,0)"/>
<path d="" fill="#FFFF00" transform="translate(0,0)"/>
<path d="" fill="#00FF00" transform="translate(0,0)"/>
<path d="" fill="#000000" transform="translate(0,0)"/>
<path d="" fill="#00FF00" transform="translate(0,0)"/>
<path d="" fill="#FFFF00" transform="translate(0,0)"/>
<path d="" fill="#00FF00" transform="translate(0,0)"/>
<path d="" fill="#FFFF00" transform="translate(0,0)"/>
<path d="" fill="#000000" transform="translate(0,0)"/>
<path d="" fill="#00FF00" transform="translate(0,0)"/>
<path d="" fill="#FFFF00" transform="translate(0,0)"/>
<path d="" fill="#000000" transform="translate(0,0)"/>
<path d="" fill="#00FF00" transform="translate(0,0)"/>
<path d="" fill="#000000" transform="translate(0,0)"/>
<path d="" fill="#00FF00" transform="translate(0,0)"/>
<path d="" fill="#00FF00" transform="translate(0,0)"/>
<path d="" fill="#00FF00" transform="translate(0,0)"/>
<path d="" fill="#000000" transform="translate(0,0)"/>
<path d="" fill="#FFFF00" transform="translate(0,0)"/>
<path d="" fill="#00FF00" transform="translate(0,0)"/>
<path d="" fill="#000000" transform="translate(0,0)"/>
<path d="" fill="#00FF00" transform="translate(0,0)"/>
<path d="" fill="#00FF00" transform="translate(0,0)"/>
<path d="" fill="#00FF00" transform="translate(0,0)"/>
<path d="" fill="#000000" transform="translate(0,0)"/>
<path d="" fill="#00FF00" transform="translate(0,0)"/>
<path d="" fill="#00FF00" transform="translate(0,0)"/>
<path d="" fill="#FFFF00" transform="translate(0,0)"/>
<path d="" fill="#00FF00" transform="translate(0,0)"/>
<path d="" fill="#000000" transform="translate(0,0)"/>
<path d="" fill="#000000" transform="translate(0,0)"/>
<path d="" fill="#000000" transform="translate(0,0)"/>
<path d="" fill="#00FF00" transform="translate(0,0)"/>
<path d="" fill="#000000" transform="translate(0,0)"/>
<path d="" fill="#00FF00" transform="translate(0,0)"/>
<path d="" fill="#FFFF00" transform="translate(0,0)"/>
<path d="" fill="#000000" transform="translate(0,0)"/>
<path d="" fill="#FFFF00" transform="translate(0,0)"/>
<path d="" fill="#00FF00" transform="translate(0,0)"/>
<path d="" fill="#00FF00" transform="translate(0,0)"/>
<path d="" fill="#FFFF00" transform="translate(0,0)"/>
<path d="" fill="#FFFF00" transform="translate(0,0)"/>
<path d="" fill="#00FF00" transform="translate(0,0)"/>
<path d="" fill="#000000" transform="translate(0,0)"/>
<path d="" fill="#00FF00" transform="translate(0,0)"/>
<path d="" fill="#FFFF00" transform="translate(0,0)"/>
<path d="" fill="#FFFF00" transform="translate(0,0)"/>
<path d="" fill="#00FF00" transform="translate(0,0)"/>
<path d="" fill="#000000" transform="translate(0,0)"/>
<path d="" fill="#FFFF00" transform="translate(0,0)"/>
<path d="" fill="#000000" transform="translate(0,0)"/>
<path d="" fill="#FFFFFF" transform="translate(0,0)"/>
<path d="" fill="#FFFF00" transform="translate(0,0)"/>
<path d="" fill="#FFFF00" transform="translate(0,0)"/>
<path d="" fill="#000000" transform="translate(0,0)"/>
<path d="" fill="#000000" transform="translate(0,0)"/>
<path d="" fill="#00FF00" transform="translate(0,0)"/>
<path d="" fill="#00FF00" transform="translate(0,0)"/>
<path d="" fill="#FFFFFF" transform="translate(0,0)"/>
<path d="" fill="#FFFFFF" transform="translate(0,0)"/>
<path d="" fill="#00FF00" transform="translate(0,0)"/>
<path d="" fill="#00FF00" transform="translate(0,0)"/>
<path d="" fill="#000000" transform="translate(0,0)"/>
<path d="" fill="#00FF00" transform="translate(0,0)"/>
<path d="" fill="#00FF00" transform="translate(0,0)"/>
<path d="" fill="#000000" transform="translate(0,0)"/>
<path d="" fill="#80FF00" transform="translate(0,0)"/>
<path d="" fill="#00FF00" transform="translate(0,0)"/>
<path d="" fill="#00FF00" transform="translate(0,0)"/>
<path d="" fill="#00FF00" transform="translate(0,0)"/>
<path d="" fill="#AAFF55" transform="translate(0,0)"/>
</svg>
